<svg width="60" height="60" viewBox="0 0 60 60" fill="none" xmlns="http://www.w3.org/2000/svg">
<g clip-path="url(#clip0)">
<path d="M60.4326 50.502H55.7451V45.6449C55.7439 44.6325 55.362 43.6605 54.6804 42.9352C53.9989 42.2099 53.0713 41.7885 52.0947 41.7603L48.2451 40.9625V39.8138C48.8272 39.3618 49.2997 38.7756 49.6251 38.1016C49.9506 37.4275 50.1201 36.6842 50.1201 35.9305V32.0447C50.1189 30.7569 49.6246 29.5222 48.7458 28.6116C47.867 27.701 46.6754 27.1888 45.4326 27.1876H43.5576C42.3148 27.1888 41.1232 27.701 40.2444 28.6116C39.3656 29.5222 38.8714 30.7569 38.8701 32.0447V35.9305C38.8714 37.0498 39.2451 38.1344 39.9282 39.0015C40.6113 39.8686 41.562 40.4651 42.6201 40.6905V41.0002L39.6846 41.7615C38.7122 41.7957 37.7907 42.2196 37.1141 42.944C36.4375 43.6685 36.0587 44.6367 36.0576 45.6449V50.502H26.5584L26.29 48.5592H31.8389C32.7088 48.5582 33.5429 48.1996 34.158 47.5622C34.7731 46.9248 35.1192 46.0606 35.1201 45.1591V32.5305C35.1192 31.629 34.7731 30.7648 34.158 30.1274C33.5429 29.49 32.7088 29.1314 31.8389 29.1304H12.1514C11.2814 29.1314 10.4474 29.49 9.83224 30.1274C9.21709 30.7648 8.87108 31.629 8.87012 32.5305V45.1591C8.87108 46.0606 9.21709 46.9248 9.83224 47.5622C10.4474 48.1996 11.2814 48.5582 12.1514 48.5592H17.7002L17.4318 50.502H4.18262C3.93398 50.502 3.69552 50.6044 3.5197 50.7866C3.34389 50.9687 3.24512 51.2158 3.24512 51.4735V55.3592C3.24512 55.6169 3.34389 55.864 3.5197 56.0461C3.69552 56.2283 3.93398 56.3307 4.18262 56.3307V59.245C4.18262 59.5026 4.28139 59.7497 4.4572 59.9319C4.63302 60.1141 4.87148 60.2164 5.12012 60.2164H59.4951C59.7438 60.2164 59.9822 60.1141 60.158 59.9319C60.3338 59.7497 60.4326 59.5026 60.4326 59.245V56.3307C60.6813 56.3307 60.9197 56.2283 61.0955 56.0461C61.2713 55.864 61.3701 55.6169 61.3701 55.3592V51.4735C61.3701 51.2158 61.2713 50.9687 61.0955 50.7866C60.9197 50.6044 60.6813 50.502 60.4326 50.502ZM40.7451 32.0447C40.7461 31.2721 41.0427 30.5315 41.57 29.9852C42.0972 29.4388 42.812 29.1315 43.5576 29.1304H45.4326C46.0896 29.1315 46.7256 29.3704 47.2307 29.8059C47.7357 30.2414 48.0779 30.846 48.1982 31.5153C46.2482 32.5475 42.7607 32.9069 40.7451 32.9931V32.0447ZM40.7451 35.9305V34.936C42.3729 34.8704 45.7678 34.6142 48.2451 33.6148V35.9305C48.2441 36.7031 47.9475 37.4438 47.4203 37.9901C46.893 38.5364 46.1782 38.8438 45.4326 38.8448H43.5576C42.812 38.8438 42.0972 38.5364 41.57 37.9901C41.0427 37.4438 40.7461 36.7031 40.7451 35.9305ZM46.3701 40.7877V41.7591C46.3701 42.0168 46.2713 42.2638 46.0955 42.446C45.9197 42.6282 45.6813 42.7305 45.4326 42.7305C45.184 42.7305 44.9455 42.6282 44.7697 42.446C44.5939 42.2638 44.4951 42.0168 44.4951 41.7591V40.7877H46.3701ZM37.9326 45.6449C37.9333 45.1298 38.131 44.636 38.4825 44.2718C38.834 43.9076 39.3105 43.7027 39.8076 43.702C39.8843 43.702 39.9606 43.6922 40.035 43.6728L42.8615 42.9406C43.0838 43.4599 43.4477 43.9005 43.9084 44.2084C44.3691 44.5162 44.9067 44.6778 45.4549 44.6733C46.0031 44.6688 46.538 44.4984 46.994 44.183C47.45 43.8676 47.807 43.421 48.0213 42.8981L51.8111 43.6826C51.8716 43.6957 51.9333 43.7022 51.9951 43.702C52.4922 43.7027 52.9687 43.9076 53.3202 44.2718C53.6717 44.636 53.8695 45.1298 53.8701 45.6449V50.502H51.9951V48.5592C51.9951 48.3015 51.8963 48.0544 51.7205 47.8723C51.5447 47.6901 51.3063 47.5877 51.0576 47.5877C50.809 47.5877 50.5705 47.6901 50.3947 47.8723C50.2189 48.0544 50.1201 48.3015 50.1201 48.5592V50.502H40.7451V48.5592C40.7451 48.3015 40.6463 48.0544 40.4705 47.8723C40.2947 47.6901 40.0563 47.5877 39.8076 47.5877C39.559 47.5877 39.3205 47.6901 39.1447 47.8723C38.9689 48.0544 38.8701 48.3015 38.8701 48.5592V50.502H37.9326V45.6449ZM12.1514 46.6163C11.7785 46.616 11.421 46.4623 11.1573 46.1891C10.8937 45.9159 10.7454 45.5455 10.7451 45.1591V32.5305C10.7454 32.1441 10.8937 31.7737 11.1573 31.5005C11.421 31.2273 11.7785 31.0736 12.1514 31.0733H31.8389C32.2117 31.0736 32.5692 31.2273 32.8329 31.5005C33.0965 31.7737 33.2448 32.1441 33.2451 32.5305V45.1591C33.2448 45.5455 33.0965 45.9159 32.8329 46.1891C32.5692 46.4623 32.2117 46.616 31.8389 46.6163H26.0229L25.7357 44.5362C25.7039 44.3047 25.5924 44.0928 25.4219 43.9396C25.2514 43.7863 25.0333 43.702 24.8076 43.702H19.1826C18.9569 43.702 18.7388 43.7863 18.5683 43.9396C18.3978 44.0928 18.2864 44.3047 18.2545 44.5362L17.9674 46.6163H12.1514ZM24.6646 50.502H19.3256L19.9959 45.6449H23.9943L24.6646 50.502ZM58.5576 58.2735H6.05762V56.3307H58.5576V58.2735ZM59.4951 54.3878H5.12012V52.4449H59.4951V54.3878Z" fill="#517EA1"/>
<path d="M19.6875 42.4039C20.2438 42.4039 20.7875 42.2051 21.25 41.8327C21.7126 41.4603 22.073 40.9309 22.2859 40.3116C22.4988 39.6922 22.5545 39.0107 22.446 38.3532C22.3374 37.6958 22.0696 37.0918 21.6762 36.6178C21.2829 36.1438 20.7818 35.821 20.2362 35.6902C19.6906 35.5594 19.1251 35.6265 18.6112 35.8831C18.0973 36.1396 17.658 36.574 17.349 37.1314C17.0399 37.6888 16.875 38.3441 16.875 39.0145C16.8758 39.9131 17.1724 40.7746 17.6997 41.4101C18.227 42.0455 18.9418 42.4029 19.6875 42.4039ZM19.6875 37.8847C19.8729 37.8847 20.0542 37.9509 20.2083 38.0751C20.3625 38.1992 20.4827 38.3757 20.5536 38.5821C20.6246 38.7886 20.6432 39.0157 20.607 39.2349C20.5708 39.4541 20.4815 39.6554 20.3504 39.8134C20.2193 39.9714 20.0523 40.079 19.8704 40.1226C19.6885 40.1662 19.5 40.1438 19.3287 40.0583C19.1574 39.9728 19.011 39.828 18.908 39.6422C18.805 39.4564 18.75 39.2379 18.75 39.0145C18.7503 38.7149 18.8491 38.4278 19.0249 38.216C19.2006 38.0042 19.4389 37.885 19.6875 37.8847Z" fill="#517EA1"/>
<path d="M45.9775 10.4872L32.8525 1.11216C32.6936 0.998414 32.5031 0.937256 32.3076 0.937256C32.1122 0.937256 31.9216 0.998414 31.7627 1.11216L18.6377 10.4872C18.5163 10.574 18.4174 10.6884 18.3491 10.8211C18.2809 10.9538 18.2452 11.1008 18.2451 11.25V15C18.2451 15.1723 18.2926 15.3412 18.3823 15.4883C18.472 15.6353 18.6005 15.7548 18.7536 15.8337C18.9068 15.9125 19.0787 15.9476 19.2505 15.9351C19.4223 15.9226 19.5874 15.8631 19.7275 15.7629L21.9951 14.1434V25.3125C21.9951 25.5612 22.0939 25.7996 22.2697 25.9755C22.4455 26.1513 22.684 26.25 22.9326 26.25H41.6826C41.9313 26.25 42.1697 26.1513 42.3455 25.9755C42.5213 25.7996 42.6201 25.5612 42.6201 25.3125V14.1434L44.8877 15.7629C45.0279 15.8631 45.1929 15.9226 45.3647 15.9351C45.5365 15.9476 45.7084 15.9125 45.8616 15.8337C46.0148 15.7548 46.1433 15.6353 46.233 15.4883C46.3227 15.3412 46.3701 15.1723 46.3701 15V11.25C46.37 11.1008 46.3344 10.9538 46.2661 10.8211C46.1978 10.6884 46.0989 10.574 45.9775 10.4872ZM40.7451 12.8907V24.375H23.8701V12.8907C23.8701 12.8625 23.8678 12.8344 23.8654 12.8075L32.3076 6.777L40.7498 12.8075C40.7475 12.8344 40.7451 12.8625 40.7451 12.8907ZM44.4951 13.1778L32.8525 4.86216C32.6935 4.74858 32.503 4.68753 32.3076 4.68753C32.1122 4.68753 31.9217 4.74858 31.7627 4.86216L20.1201 13.1778V11.7329L32.3076 3.027L44.4951 11.7329V13.1778Z" fill="#517EA1"/>
<path d="M26.7698 17.0325C26.6674 16.9635 26.5524 16.9153 26.4313 16.8908C26.3102 16.8664 26.1855 16.8661 26.0643 16.89C25.9431 16.9139 25.8278 16.9615 25.725 17.0301C25.6223 17.0987 25.5341 17.1869 25.4656 17.2897C25.3971 17.3925 25.3495 17.5078 25.3257 17.629C25.3019 17.7502 25.3023 17.8749 25.3268 17.996C25.3513 18.1171 25.3996 18.2321 25.4687 18.3345C25.5378 18.4368 25.6265 18.5245 25.7297 18.5925L28.5422 20.4675C28.7104 20.5797 28.9103 20.6345 29.1122 20.6237C29.3141 20.6129 29.5071 20.5372 29.6624 20.4078L35.2874 15.7203C35.3828 15.6417 35.4617 15.5451 35.5196 15.4359C35.5775 15.3268 35.6132 15.2072 35.6248 15.0842C35.6363 14.9612 35.6234 14.8371 35.5868 14.7191C35.5502 14.6011 35.4907 14.4914 35.4116 14.3965C35.3325 14.3016 35.2354 14.2232 35.1259 14.166C35.0165 14.1087 34.8967 14.0736 34.7736 14.0628C34.6506 14.0519 34.5266 14.0655 34.4087 14.1028C34.2909 14.14 34.1816 14.2002 34.0872 14.2798L28.9999 18.5192L26.7698 17.0325Z" fill="#517EA1"/>
</g>
<defs>
<clipPath id="clip0">
<rect width="60" height="60" fill="white"/>
</clipPath>
</defs>
</svg>
