<svg width="60" height="60" viewBox="0 0 60 60" fill="none" xmlns="http://www.w3.org/2000/svg">
<g clip-path="url(#clip0)">
<path d="M60 31.5633V23.6489C60 21.4541 58.6141 19.5556 56.5519 18.9252L50.3226 17.0204V15.522C52.0752 14.2727 53.2258 12.2042 53.2258 9.86449V6.90447C53.2258 3.09728 50.187 0 46.4516 0C42.7163 0 39.6774 3.09728 39.6774 6.90447V9.86352C39.6774 12.2042 40.828 14.2727 42.5806 15.5211V17.0194L37.0908 18.6983C35.0306 16.8205 32.4057 15.7816 29.6187 15.7816C26.843 15.7816 24.3036 16.8181 22.3412 18.5259L17.4194 17.0204V15.522C19.172 14.2727 20.3226 12.2042 20.3226 9.86449V6.90447C20.3226 3.09728 17.2837 0 13.5484 0C9.81304 0 6.77419 3.09728 6.77419 6.90447V9.86352C6.77419 12.2042 7.9248 14.2727 9.67742 15.5211V17.0194L3.44805 18.9242C1.38593 19.5556 0 21.4541 0 23.6489V31.5633H1.93548V23.6489C1.93548 22.3321 2.76666 21.1926 4.00469 20.815L10.2359 18.9093C10.7992 19.6548 11.8889 20.7134 13.5484 20.7134C15.2079 20.7134 16.2976 19.6548 16.8608 18.9093L20.8296 20.1225C19.5698 21.7373 18.7306 23.7028 18.4759 25.8532C17.2403 24.5148 15.4905 23.6725 13.5484 23.6725C9.81304 23.6725 6.77419 26.7697 6.77419 30.5769V33.536C6.77419 35.8766 7.9248 37.9452 9.67742 39.1935V40.6919L3.44805 42.5966C1.38593 43.2281 0 45.1266 0 47.3213V56.2221H11.6129C12.1459 56.2221 12.5806 56.6652 12.5806 57.2084V61.1538H47.4194V57.2084C47.4194 56.6652 47.8541 56.2221 48.3871 56.2221H60V47.3213C60 45.1266 58.6141 43.2281 56.5519 42.5976L50.3226 40.6928V39.1945C52.0752 37.9452 53.2258 35.8766 53.2258 33.5369V30.5779C53.2258 26.7707 50.187 23.6734 46.4516 23.6734C44.5568 23.6734 42.8438 24.4724 41.6129 25.7545V24.8197C41.6129 22.8715 40.5743 21.118 38.9535 20.1908L43.1392 18.9102C43.7024 19.6548 44.7921 20.7134 46.4516 20.7134C48.1111 20.7134 49.2008 19.6548 49.764 18.9093L55.9963 20.815C57.2333 21.1926 58.0645 22.3321 58.0645 23.6489V31.5633H60ZM13.5484 1.9727C16.2163 1.9727 18.3871 4.18526 18.3871 6.90447H13.9491C13.3343 6.90447 12.7314 6.65017 12.2971 6.20708L11.6129 5.5097L10.9287 6.20708C10.4944 6.65017 9.89148 6.90447 9.27671 6.90447H8.70968C8.70968 4.18526 10.8805 1.9727 13.5484 1.9727ZM8.70968 9.86352V8.87717H9.27671C10.1197 8.87717 10.9249 8.63058 11.6129 8.17016C12.3009 8.63058 13.1061 8.87717 13.9491 8.87717H18.3871V9.86352C18.3871 12.5827 16.2163 14.7953 13.5484 14.7953C10.8805 14.7953 8.70968 12.5827 8.70968 9.86352ZM13.5484 18.7407C12.5197 18.7407 11.8529 17.8598 11.6129 17.4832V16.4781C12.2262 16.6644 12.876 16.768 13.5484 16.768C14.2208 16.768 14.8705 16.6644 15.4839 16.4771V17.4822C15.2438 17.8608 14.5771 18.7407 13.5484 18.7407ZM40.1495 36.0529C40.6423 37.3287 41.4929 38.4196 42.5806 39.1945V40.6928L36.3522 42.5976C36.1471 42.6597 35.9477 42.7407 35.7531 42.8302L34.8387 42.6154V40.6721C35.8731 39.8249 36.6882 38.7124 37.1886 37.4371C38.3033 37.3374 39.3485 36.8538 40.1495 36.0529ZM30 42.4132C31.0268 42.4132 32.0064 42.2041 32.9032 41.8323V42.9063L30 45.1256L27.0968 42.9063V41.8323C27.9936 42.2041 28.9732 42.4132 30 42.4132ZM25.9084 44.4639L28.2677 46.268L25.8408 47.7524L25.227 44.6247L25.9084 44.4639ZM28.9307 52.2767H31.0693L31.8221 59.1811H28.1779L28.9307 52.2767ZM31.2376 50.304H28.7615L28.2058 48.6053L30 47.5087L31.7933 48.6053L31.2376 50.304ZM31.7323 46.268L34.0916 44.4639L34.773 44.6238L34.1592 47.7514L31.7323 46.268ZM38.9228 34.5402C38.5878 34.9149 38.162 35.1773 37.7004 35.3372C37.7273 35.069 37.7419 34.7973 37.7419 34.5223V29.8025C38.7834 30.2051 39.5583 31.139 39.6628 32.2549C39.7422 33.104 39.4799 33.9145 38.9228 34.5402ZM35.8064 34.5223C35.8064 37.7863 33.2023 40.4404 30 40.4404C26.7977 40.4404 24.1935 37.7863 24.1935 34.5223V29.5906H27.479C29.588 29.5906 31.6402 29.0541 33.475 28.0292L34.2405 29.5906H35.8064V34.5223ZM22.2996 35.3372C21.838 35.1773 21.4122 34.9149 21.0772 34.5402C20.5201 33.9155 20.2578 33.104 20.3372 32.2558C20.4417 31.1399 21.2166 30.2051 22.2581 29.8034V34.5223C22.2581 34.7973 22.2727 35.069 22.2996 35.3372ZM22.8114 37.4371C23.3109 38.7124 24.126 39.8249 25.1613 40.6721V42.6154L24.2469 42.8302C24.0513 42.7407 23.8529 42.6607 23.6487 42.5976L17.4194 40.6928V39.1945C18.5062 38.4196 19.3577 37.3287 19.8505 36.0529C20.6515 36.8538 21.6967 37.3374 22.8114 37.4371ZM13.5484 25.6452C16.2163 25.6452 18.3871 27.8577 18.3871 30.5769H17.8201C17.2053 30.5769 16.6024 30.3226 16.1681 29.8795L15.4839 29.1822L14.7996 29.8795C14.3654 30.3226 13.7624 30.5769 13.1477 30.5769H8.70968C8.70968 27.8577 10.8805 25.6452 13.5484 25.6452ZM8.70968 33.536V32.5496H13.1477C13.9907 32.5496 14.7959 32.303 15.4839 31.8426C16.1719 32.303 16.9771 32.5496 17.8201 32.5496H18.3871V33.536C18.3871 36.2552 16.2163 38.4677 13.5484 38.4677C10.8805 38.4677 8.70968 36.2552 8.70968 33.536ZM13.5484 40.4404C14.2208 40.4404 14.8705 40.3369 15.4839 40.1496V41.1547C15.2438 41.5332 14.5771 42.4132 13.5484 42.4132C12.5197 42.4132 11.8529 41.5323 11.6129 41.1557V40.1505C12.2262 40.3369 12.876 40.4404 13.5484 40.4404ZM11.6129 54.2494H7.74194V47.3449H5.80645V54.2494H1.93548V47.3213C1.93548 46.0046 2.76666 44.8651 4.00469 44.4875L10.2359 42.5817C10.7992 43.3273 11.8889 44.3859 13.5484 44.3859C15.2079 44.3859 16.2976 43.3273 16.8608 42.5817L20.5305 43.7044L17.8314 44.3387C14.7396 45.0664 12.5806 47.8333 12.5806 51.0664V52.2767H14.5161V51.0664C14.5161 48.7565 16.0589 46.7809 18.2671 46.2608L23.3402 45.0673L24.4808 50.8829L26.5056 49.6451L27.0783 51.3968L26.2306 59.1811H21.2903V51.2903H19.3548V59.1811H14.5161V57.2084C14.5161 55.5772 13.2134 54.2494 11.6129 54.2494ZM55.9953 44.4875C57.2333 44.8651 58.0645 46.0046 58.0645 47.3213V54.2494H54.1935V47.3449H52.2581V54.2494H48.3871C46.7866 54.2494 45.4839 55.5772 45.4839 57.2084V59.1811H40.6452V51.2903H38.7097V59.1811H33.7694L32.9207 51.3968L33.4934 49.6451L35.5182 50.8829L36.6589 45.0673L41.7329 46.2608C43.9411 46.7809 45.4839 48.7565 45.4839 51.0664V52.2767H47.4194V51.0664C47.4194 47.8333 45.2604 45.0664 42.1686 44.3387L39.4695 43.7044L43.1392 42.5817C43.7024 43.3273 44.7921 44.3859 46.4516 44.3859C48.1111 44.3859 49.2008 43.3273 49.764 42.5817L55.9953 44.4875ZM48.3871 41.1557C48.147 41.5332 47.4803 42.4132 46.4516 42.4132C45.421 42.4132 44.7533 41.5294 44.5161 41.1557V40.1496C45.1295 40.3369 45.7792 40.4404 46.4516 40.4404C47.124 40.4404 47.7738 40.3369 48.3871 40.1496V41.1557ZM46.4516 38.4677C43.7837 38.4677 41.6129 36.2552 41.6129 33.536V32.5496H42.1799C43.0229 32.5496 43.8281 32.303 44.5161 31.8426C45.2041 32.303 46.0093 32.5496 46.8523 32.5496H51.2903V33.536C51.2903 36.2552 49.1195 38.4677 46.4516 38.4677ZM46.4516 25.6452C49.1195 25.6452 51.2903 27.8577 51.2903 30.5769H46.8523C46.2376 30.5769 45.6346 30.3226 45.2004 29.8795L44.5161 29.1822L43.8319 29.8795C43.3976 30.3226 42.7947 30.5769 42.1799 30.5769H41.6129C41.6129 27.8577 43.7837 25.6452 46.4516 25.6452ZM39.6774 28.688C38.8212 28.0272 37.7575 27.6179 36.6079 27.6179H35.4369L34.2466 25.1915L33.3346 25.8108C31.5938 26.9937 29.5695 27.6179 27.479 27.6179H23.3921C22.2425 27.6179 21.1788 28.0272 20.3226 28.688V27.2292C20.3226 22.0056 24.4936 17.7543 29.6187 17.7543C32.1018 17.7543 34.4371 18.7397 36.1925 20.5289L37.2193 21.5755L37.4362 21.6497C38.7763 22.1053 39.6774 23.3787 39.6774 24.8187V28.688ZM46.4516 1.9727C49.1195 1.9727 51.2903 4.18526 51.2903 6.90447H50.7233C50.1085 6.90447 49.5056 6.65017 49.0713 6.20708L48.3871 5.5097L47.7029 6.20708C47.2686 6.65017 46.6657 6.90447 46.0509 6.90447H41.6129C41.6129 4.18526 43.7837 1.9727 46.4516 1.9727ZM41.6129 9.86352V8.87717H46.0509C46.8939 8.87717 47.6991 8.63058 48.3871 8.17016C49.0751 8.63058 49.8803 8.87717 50.7233 8.87717H51.2903V9.86352C51.2903 12.5827 49.1195 14.7953 46.4516 14.7953C43.7837 14.7953 41.6129 12.5827 41.6129 9.86352ZM46.4516 18.7407C45.421 18.7407 44.7533 17.8569 44.5161 17.4832V16.4771C45.1295 16.6644 45.7792 16.768 46.4516 16.768C47.124 16.768 47.7738 16.6644 48.3871 16.4771V17.4822C48.147 17.8608 47.4803 18.7407 46.4516 18.7407Z" fill="#517EA1"/>
<path d="M22.2578 0H24.1933V1.93548H22.2578V0Z" fill="#517EA1"/>
<path d="M22.2578 3.87103H24.1933V14.5162H22.2578V3.87103Z" fill="#517EA1"/>
<path d="M35.8066 0H37.7421V1.93548H35.8066V0Z" fill="#517EA1"/>
<path d="M35.8066 3.87103H37.7421V14.5162H35.8066V3.87103Z" fill="#517EA1"/>
<path d="M26.1289 3.87103H28.0644V10.6452H26.1289V3.87103Z" fill="#517EA1"/>
<path d="M26.1289 12.5807H28.0644V14.5162H26.1289V12.5807Z" fill="#517EA1"/>
<path d="M31.9355 3.87103H33.871V10.6452H31.9355V3.87103Z" fill="#517EA1"/>
<path d="M31.9355 12.5807H33.871V14.5162H31.9355V12.5807Z" fill="#517EA1"/>
</g>
<defs>
<clipPath id="clip0">
<rect width="60" height="60" fill="white"/>
</clipPath>
</defs>
</svg>
