<svg width="64" height="65" viewBox="0 0 64 65" fill="none" xmlns="http://www.w3.org/2000/svg">
<mask id="path-1-inside-1" fill="white">
<path d="M64 33.5484V25.1362C64 22.8034 62.5217 20.7855 60.3221 20.1154L53.6774 18.0908V16.4983C55.5469 15.1704 56.7742 12.9717 56.7742 10.4849V7.33871C56.7742 3.29208 53.5328 0 49.5484 0C45.564 0 42.3226 3.29208 42.3226 7.33871V10.4839C42.3226 12.9717 43.5499 15.1704 45.4194 16.4973V18.0898L39.5635 19.8743C37.3659 17.8784 34.566 16.7742 31.5932 16.7742C28.6326 16.7742 25.9239 17.8758 23.8306 19.691L18.5806 18.0908V16.4983C20.4501 15.1704 21.6774 12.9717 21.6774 10.4849V7.33871C21.6774 3.29208 18.436 0 14.4516 0C10.4672 0 7.22581 3.29208 7.22581 7.33871V10.4839C7.22581 12.9717 8.45312 15.1704 10.3226 16.4973V18.0898L3.67792 20.1144C1.47833 20.7855 0 22.8034 0 25.1362V33.5484H2.06452V25.1362C2.06452 23.7367 2.95111 22.5255 4.27167 22.1241L10.9183 20.0985C11.5192 20.891 12.6815 22.0161 14.4516 22.0161C16.2218 22.0161 17.3841 20.891 17.9849 20.0985L22.2182 21.388C20.8745 23.1044 19.9793 25.1935 19.7077 27.4792C18.3896 26.0566 16.5232 25.1613 14.4516 25.1613C10.4672 25.1613 7.22581 28.4534 7.22581 32.5V35.6452C7.22581 38.133 8.45312 40.3317 10.3226 41.6585V43.2511L3.67792 45.2757C1.47833 45.9468 0 47.9647 0 50.2975V59.7581H12.3871C12.9556 59.7581 13.4194 60.229 13.4194 60.8064V65H50.5806V60.8064C50.5806 60.229 51.0444 59.7581 51.6129 59.7581H64V50.2975C64 47.9647 62.5217 45.9468 60.3221 45.2767L53.6774 43.2521V41.6596C55.5469 40.3317 56.7742 38.133 56.7742 35.6462V32.501C56.7742 28.4544 53.5328 25.1623 49.5484 25.1623C47.5272 25.1623 45.7001 26.0116 44.3871 27.3743V26.3807C44.3871 24.31 43.2792 22.4461 41.5504 21.4607L46.0151 20.0995C46.6159 20.891 47.7782 22.0161 49.5484 22.0161C51.3185 22.0161 52.4808 20.891 53.0816 20.0985L59.7293 22.1241C61.0489 22.5255 61.9355 23.7367 61.9355 25.1362V33.5484H64ZM14.4516 2.09677C17.2974 2.09677 19.6129 4.44848 19.6129 7.33871H14.879C14.2233 7.33871 13.5801 7.06842 13.1169 6.59747L12.3871 5.85622L11.6573 6.59747C11.1941 7.06842 10.5509 7.33871 9.89516 7.33871H9.29032C9.29032 4.44848 11.6058 2.09677 14.4516 2.09677ZM9.29032 10.4839V9.43548H9.89516C10.7944 9.43548 11.6532 9.17339 12.3871 8.684C13.121 9.17339 13.9798 9.43548 14.879 9.43548H19.6129V10.4839C19.6129 13.3741 17.2974 15.7258 14.4516 15.7258C11.6058 15.7258 9.29032 13.3741 9.29032 10.4839ZM14.4516 19.9194C13.3543 19.9194 12.6431 18.9831 12.3871 18.5828V17.5144C13.0413 17.7125 13.7344 17.8226 14.4516 17.8226C15.1688 17.8226 15.8619 17.7125 16.5161 17.5134V18.5817C16.2601 18.9841 15.5489 19.9194 14.4516 19.9194ZM42.8261 38.3204C43.3518 39.6764 44.2591 40.8359 45.4194 41.6596V43.2521L38.7757 45.2767C38.557 45.3427 38.3443 45.4287 38.1366 45.524L37.1613 45.2956V43.2301C38.2646 42.3297 39.1341 41.1471 39.6678 39.7916C40.8569 39.6856 41.9718 39.1717 42.8261 38.3204ZM32 45.0806C33.0953 45.0806 34.1401 44.8585 35.0968 44.4633V45.6048L32 47.9637L28.9032 45.6048V44.4633C29.8599 44.8585 30.9047 45.0806 32 45.0806ZM27.6356 47.2603L30.1522 49.178L27.5635 50.7557L26.9088 47.4313L27.6356 47.2603ZM30.8594 55.5645H33.1406L33.9435 62.9032H30.0564L30.8594 55.5645ZM33.3201 53.4677H30.6789L30.0862 51.6622L32 50.4966L33.9128 51.6622L33.3201 53.4677ZM33.8478 49.178L36.3644 47.2603L37.0912 47.4303L36.4365 50.7546L33.8478 49.178ZM41.5176 36.7125C41.1603 37.1108 40.7061 37.3897 40.2137 37.5597C40.2424 37.2746 40.2581 36.9858 40.2581 36.6935V31.6769C41.3689 32.1048 42.1956 33.0974 42.307 34.2835C42.3916 35.186 42.1119 36.0475 41.5176 36.7125ZM38.1935 36.6935C38.1935 40.1627 35.4158 42.9839 32 42.9839C28.5842 42.9839 25.8064 40.1627 25.8064 36.6935V31.4516H29.311C31.5605 31.4516 33.7495 30.8813 35.7067 29.792L36.5232 31.4516H38.1935V36.6935ZM23.7863 37.5597C23.2938 37.3897 22.8397 37.1108 22.4824 36.7125C21.8881 36.0485 21.6084 35.186 21.693 34.2845C21.8044 33.0984 22.631 32.1048 23.7419 31.6779V36.6935C23.7419 36.9858 23.7576 37.2746 23.7863 37.5597ZM24.3322 39.7916C24.8649 41.1471 25.7344 42.3297 26.8387 43.2301V45.2956L25.8634 45.524C25.6547 45.4287 25.443 45.3438 25.2253 45.2767L18.5806 43.2521V41.6596C19.7399 40.8359 20.6482 39.6764 21.1739 38.3204C22.0282 39.1717 23.1431 39.6856 24.3322 39.7916ZM14.4516 27.2581C17.2974 27.2581 19.6129 29.6098 19.6129 32.5H19.0081C18.3523 32.5 17.7092 32.2297 17.246 31.7588L16.5161 31.0175L15.7863 31.7588C15.3231 32.2297 14.6799 32.5 14.0242 32.5H9.29032C9.29032 29.6098 11.6058 27.2581 14.4516 27.2581ZM9.29032 35.6452V34.5968H14.0242C14.9234 34.5968 15.7823 34.3347 16.5161 33.8453C17.25 34.3347 18.1089 34.5968 19.0081 34.5968H19.6129V35.6452C19.6129 38.5354 17.2974 40.8871 14.4516 40.8871C11.6058 40.8871 9.29032 38.5354 9.29032 35.6452ZM14.4516 42.9839C15.1688 42.9839 15.8619 42.8738 16.5161 42.6747V43.743C16.2601 44.1454 15.5489 45.0806 14.4516 45.0806C13.3543 45.0806 12.6431 44.1444 12.3871 43.7441V42.6757C13.0413 42.8738 13.7344 42.9839 14.4516 42.9839ZM12.3871 57.6613H8.25806V50.3226H6.19355V57.6613H2.06452V50.2975C2.06452 48.8979 2.95111 47.6868 4.27167 47.2854L10.9183 45.2598C11.5192 46.0522 12.6815 47.1774 14.4516 47.1774C16.2218 47.1774 17.3841 46.0522 17.9849 45.2598L21.8992 46.4531L19.0202 47.1273C15.7223 47.9007 13.4194 50.8417 13.4194 54.2781V55.5645H15.4839V54.2781C15.4839 51.823 17.1295 49.7231 19.4849 49.1703L24.8962 47.9018L26.1129 54.0831L28.2727 52.7674L28.8836 54.6293L27.9793 62.9032H22.7097V54.5161H20.6452V62.9032H15.4839V60.8064C15.4839 59.0726 14.0943 57.6613 12.3871 57.6613ZM59.7283 47.2854C61.0489 47.6868 61.9355 48.8979 61.9355 50.2975V57.6613H57.8064V50.3226H55.7419V57.6613H51.6129C49.9057 57.6613 48.5161 59.0726 48.5161 60.8064V62.9032H43.3548V54.5161H41.2903V62.9032H36.0207L35.1154 54.6293L35.7263 52.7674L37.8861 54.0831L39.1028 47.9018L44.5151 49.1703C46.8705 49.7231 48.5161 51.823 48.5161 54.2781V55.5645H50.5806V54.2781C50.5806 50.8417 48.2777 47.9007 44.9798 47.1273L42.1008 46.4531L46.0151 45.2598C46.6159 46.0522 47.7782 47.1774 49.5484 47.1774C51.3185 47.1774 52.4808 46.0522 53.0816 45.2598L59.7283 47.2854ZM51.6129 43.7441C51.3569 44.1454 50.6457 45.0806 49.5484 45.0806C48.4491 45.0806 47.7369 44.1413 47.4839 43.7441V42.6747C48.1381 42.8738 48.8311 42.9839 49.5484 42.9839C50.2656 42.9839 50.9587 42.8738 51.6129 42.6747V43.7441ZM49.5484 40.8871C46.7026 40.8871 44.3871 38.5354 44.3871 35.6452V34.5968H44.9919C45.8911 34.5968 46.75 34.3347 47.4839 33.8453C48.2177 34.3347 49.0766 34.5968 49.9758 34.5968H54.7097V35.6452C54.7097 38.5354 52.3941 40.8871 49.5484 40.8871ZM49.5484 27.2581C52.3941 27.2581 54.7097 29.6098 54.7097 32.5H49.9758C49.3201 32.5 48.6769 32.2297 48.2137 31.7588L47.4839 31.0175L46.754 31.7588C46.2908 32.2297 45.6477 32.5 44.9919 32.5H44.3871C44.3871 29.6098 46.7026 27.2581 49.5484 27.2581ZM42.3226 30.4923C41.4093 29.79 40.2747 29.3548 39.0484 29.3548H37.7994L36.5297 26.7758L35.557 27.4342C33.7001 28.6914 31.5408 29.3548 29.311 29.3548H24.9516C23.7253 29.3548 22.5907 29.79 21.6774 30.4923V28.9417C21.6774 23.3896 26.1265 18.871 31.5932 18.871C34.2419 18.871 36.7329 19.9183 38.6053 21.8201L39.7006 22.9324L39.932 23.0113C41.3614 23.4955 42.3226 24.849 42.3226 26.3796V30.4923ZM49.5484 2.09677C52.3941 2.09677 54.7097 4.44848 54.7097 7.33871H54.1048C53.4491 7.33871 52.8059 7.06842 52.3427 6.59747L51.6129 5.85622L50.8831 6.59747C50.4199 7.06842 49.7767 7.33871 49.121 7.33871H44.3871C44.3871 4.44848 46.7026 2.09677 49.5484 2.09677ZM44.3871 10.4839V9.43548H49.121C50.0202 9.43548 50.879 9.17339 51.6129 8.684C52.3468 9.17339 53.2056 9.43548 54.1048 9.43548H54.7097V10.4839C54.7097 13.3741 52.3941 15.7258 49.5484 15.7258C46.7026 15.7258 44.3871 13.3741 44.3871 10.4839ZM49.5484 19.9194C48.4491 19.9194 47.7369 18.98 47.4839 18.5828V17.5134C48.1381 17.7125 48.8311 17.8226 49.5484 17.8226C50.2656 17.8226 50.9587 17.7125 51.6129 17.5134V18.5817C51.3569 18.9841 50.6457 19.9194 49.5484 19.9194Z"/>
</mask>
<path d="M64 33.5484V25.1362C64 22.8034 62.5217 20.7855 60.3221 20.1154L53.6774 18.0908V16.4983C55.5469 15.1704 56.7742 12.9717 56.7742 10.4849V7.33871C56.7742 3.29208 53.5328 0 49.5484 0C45.564 0 42.3226 3.29208 42.3226 7.33871V10.4839C42.3226 12.9717 43.5499 15.1704 45.4194 16.4973V18.0898L39.5635 19.8743C37.3659 17.8784 34.566 16.7742 31.5932 16.7742C28.6326 16.7742 25.9239 17.8758 23.8306 19.691L18.5806 18.0908V16.4983C20.4501 15.1704 21.6774 12.9717 21.6774 10.4849V7.33871C21.6774 3.29208 18.436 0 14.4516 0C10.4672 0 7.22581 3.29208 7.22581 7.33871V10.4839C7.22581 12.9717 8.45312 15.1704 10.3226 16.4973V18.0898L3.67792 20.1144C1.47833 20.7855 0 22.8034 0 25.1362V33.5484H2.06452V25.1362C2.06452 23.7367 2.95111 22.5255 4.27167 22.1241L10.9183 20.0985C11.5192 20.891 12.6815 22.0161 14.4516 22.0161C16.2218 22.0161 17.3841 20.891 17.9849 20.0985L22.2182 21.388C20.8745 23.1044 19.9793 25.1935 19.7077 27.4792C18.3896 26.0566 16.5232 25.1613 14.4516 25.1613C10.4672 25.1613 7.22581 28.4534 7.22581 32.5V35.6452C7.22581 38.133 8.45312 40.3317 10.3226 41.6585V43.2511L3.67792 45.2757C1.47833 45.9468 0 47.9647 0 50.2975V59.7581H12.3871C12.9556 59.7581 13.4194 60.229 13.4194 60.8064V65H50.5806V60.8064C50.5806 60.229 51.0444 59.7581 51.6129 59.7581H64V50.2975C64 47.9647 62.5217 45.9468 60.3221 45.2767L53.6774 43.2521V41.6596C55.5469 40.3317 56.7742 38.133 56.7742 35.6462V32.501C56.7742 28.4544 53.5328 25.1623 49.5484 25.1623C47.5272 25.1623 45.7001 26.0116 44.3871 27.3743V26.3807C44.3871 24.31 43.2792 22.4461 41.5504 21.4607L46.0151 20.0995C46.6159 20.891 47.7782 22.0161 49.5484 22.0161C51.3185 22.0161 52.4808 20.891 53.0816 20.0985L59.7293 22.1241C61.0489 22.5255 61.9355 23.7367 61.9355 25.1362V33.5484H64ZM14.4516 2.09677C17.2974 2.09677 19.6129 4.44848 19.6129 7.33871H14.879C14.2233 7.33871 13.5801 7.06842 13.1169 6.59747L12.3871 5.85622L11.6573 6.59747C11.1941 7.06842 10.5509 7.33871 9.89516 7.33871H9.29032C9.29032 4.44848 11.6058 2.09677 14.4516 2.09677ZM9.29032 10.4839V9.43548H9.89516C10.7944 9.43548 11.6532 9.17339 12.3871 8.684C13.121 9.17339 13.9798 9.43548 14.879 9.43548H19.6129V10.4839C19.6129 13.3741 17.2974 15.7258 14.4516 15.7258C11.6058 15.7258 9.29032 13.3741 9.29032 10.4839ZM14.4516 19.9194C13.3543 19.9194 12.6431 18.9831 12.3871 18.5828V17.5144C13.0413 17.7125 13.7344 17.8226 14.4516 17.8226C15.1688 17.8226 15.8619 17.7125 16.5161 17.5134V18.5817C16.2601 18.9841 15.5489 19.9194 14.4516 19.9194ZM42.8261 38.3204C43.3518 39.6764 44.2591 40.8359 45.4194 41.6596V43.2521L38.7757 45.2767C38.557 45.3427 38.3443 45.4287 38.1366 45.524L37.1613 45.2956V43.2301C38.2646 42.3297 39.1341 41.1471 39.6678 39.7916C40.8569 39.6856 41.9718 39.1717 42.8261 38.3204ZM32 45.0806C33.0953 45.0806 34.1401 44.8585 35.0968 44.4633V45.6048L32 47.9637L28.9032 45.6048V44.4633C29.8599 44.8585 30.9047 45.0806 32 45.0806ZM27.6356 47.2603L30.1522 49.178L27.5635 50.7557L26.9088 47.4313L27.6356 47.2603ZM30.8594 55.5645H33.1406L33.9435 62.9032H30.0564L30.8594 55.5645ZM33.3201 53.4677H30.6789L30.0862 51.6622L32 50.4966L33.9128 51.6622L33.3201 53.4677ZM33.8478 49.178L36.3644 47.2603L37.0912 47.4303L36.4365 50.7546L33.8478 49.178ZM41.5176 36.7125C41.1603 37.1108 40.7061 37.3897 40.2137 37.5597C40.2424 37.2746 40.2581 36.9858 40.2581 36.6935V31.6769C41.3689 32.1048 42.1956 33.0974 42.307 34.2835C42.3916 35.186 42.1119 36.0475 41.5176 36.7125ZM38.1935 36.6935C38.1935 40.1627 35.4158 42.9839 32 42.9839C28.5842 42.9839 25.8064 40.1627 25.8064 36.6935V31.4516H29.311C31.5605 31.4516 33.7495 30.8813 35.7067 29.792L36.5232 31.4516H38.1935V36.6935ZM23.7863 37.5597C23.2938 37.3897 22.8397 37.1108 22.4824 36.7125C21.8881 36.0485 21.6084 35.186 21.693 34.2845C21.8044 33.0984 22.631 32.1048 23.7419 31.6779V36.6935C23.7419 36.9858 23.7576 37.2746 23.7863 37.5597ZM24.3322 39.7916C24.8649 41.1471 25.7344 42.3297 26.8387 43.2301V45.2956L25.8634 45.524C25.6547 45.4287 25.443 45.3438 25.2253 45.2767L18.5806 43.2521V41.6596C19.7399 40.8359 20.6482 39.6764 21.1739 38.3204C22.0282 39.1717 23.1431 39.6856 24.3322 39.7916ZM14.4516 27.2581C17.2974 27.2581 19.6129 29.6098 19.6129 32.5H19.0081C18.3523 32.5 17.7092 32.2297 17.246 31.7588L16.5161 31.0175L15.7863 31.7588C15.3231 32.2297 14.6799 32.5 14.0242 32.5H9.29032C9.29032 29.6098 11.6058 27.2581 14.4516 27.2581ZM9.29032 35.6452V34.5968H14.0242C14.9234 34.5968 15.7823 34.3347 16.5161 33.8453C17.25 34.3347 18.1089 34.5968 19.0081 34.5968H19.6129V35.6452C19.6129 38.5354 17.2974 40.8871 14.4516 40.8871C11.6058 40.8871 9.29032 38.5354 9.29032 35.6452ZM14.4516 42.9839C15.1688 42.9839 15.8619 42.8738 16.5161 42.6747V43.743C16.2601 44.1454 15.5489 45.0806 14.4516 45.0806C13.3543 45.0806 12.6431 44.1444 12.3871 43.7441V42.6757C13.0413 42.8738 13.7344 42.9839 14.4516 42.9839ZM12.3871 57.6613H8.25806V50.3226H6.19355V57.6613H2.06452V50.2975C2.06452 48.8979 2.95111 47.6868 4.27167 47.2854L10.9183 45.2598C11.5192 46.0522 12.6815 47.1774 14.4516 47.1774C16.2218 47.1774 17.3841 46.0522 17.9849 45.2598L21.8992 46.4531L19.0202 47.1273C15.7223 47.9007 13.4194 50.8417 13.4194 54.2781V55.5645H15.4839V54.2781C15.4839 51.823 17.1295 49.7231 19.4849 49.1703L24.8962 47.9018L26.1129 54.0831L28.2727 52.7674L28.8836 54.6293L27.9793 62.9032H22.7097V54.5161H20.6452V62.9032H15.4839V60.8064C15.4839 59.0726 14.0943 57.6613 12.3871 57.6613ZM59.7283 47.2854C61.0489 47.6868 61.9355 48.8979 61.9355 50.2975V57.6613H57.8064V50.3226H55.7419V57.6613H51.6129C49.9057 57.6613 48.5161 59.0726 48.5161 60.8064V62.9032H43.3548V54.5161H41.2903V62.9032H36.0207L35.1154 54.6293L35.7263 52.7674L37.8861 54.0831L39.1028 47.9018L44.5151 49.1703C46.8705 49.7231 48.5161 51.823 48.5161 54.2781V55.5645H50.5806V54.2781C50.5806 50.8417 48.2777 47.9007 44.9798 47.1273L42.1008 46.4531L46.0151 45.2598C46.6159 46.0522 47.7782 47.1774 49.5484 47.1774C51.3185 47.1774 52.4808 46.0522 53.0816 45.2598L59.7283 47.2854ZM51.6129 43.7441C51.3569 44.1454 50.6457 45.0806 49.5484 45.0806C48.4491 45.0806 47.7369 44.1413 47.4839 43.7441V42.6747C48.1381 42.8738 48.8311 42.9839 49.5484 42.9839C50.2656 42.9839 50.9587 42.8738 51.6129 42.6747V43.7441ZM49.5484 40.8871C46.7026 40.8871 44.3871 38.5354 44.3871 35.6452V34.5968H44.9919C45.8911 34.5968 46.75 34.3347 47.4839 33.8453C48.2177 34.3347 49.0766 34.5968 49.9758 34.5968H54.7097V35.6452C54.7097 38.5354 52.3941 40.8871 49.5484 40.8871ZM49.5484 27.2581C52.3941 27.2581 54.7097 29.6098 54.7097 32.5H49.9758C49.3201 32.5 48.6769 32.2297 48.2137 31.7588L47.4839 31.0175L46.754 31.7588C46.2908 32.2297 45.6477 32.5 44.9919 32.5H44.3871C44.3871 29.6098 46.7026 27.2581 49.5484 27.2581ZM42.3226 30.4923C41.4093 29.79 40.2747 29.3548 39.0484 29.3548H37.7994L36.5297 26.7758L35.557 27.4342C33.7001 28.6914 31.5408 29.3548 29.311 29.3548H24.9516C23.7253 29.3548 22.5907 29.79 21.6774 30.4923V28.9417C21.6774 23.3896 26.1265 18.871 31.5932 18.871C34.2419 18.871 36.7329 19.9183 38.6053 21.8201L39.7006 22.9324L39.932 23.0113C41.3614 23.4955 42.3226 24.849 42.3226 26.3796V30.4923ZM49.5484 2.09677C52.3941 2.09677 54.7097 4.44848 54.7097 7.33871H54.1048C53.4491 7.33871 52.8059 7.06842 52.3427 6.59747L51.6129 5.85622L50.8831 6.59747C50.4199 7.06842 49.7767 7.33871 49.121 7.33871H44.3871C44.3871 4.44848 46.7026 2.09677 49.5484 2.09677ZM44.3871 10.4839V9.43548H49.121C50.0202 9.43548 50.879 9.17339 51.6129 8.684C52.3468 9.17339 53.2056 9.43548 54.1048 9.43548H54.7097V10.4839C54.7097 13.3741 52.3941 15.7258 49.5484 15.7258C46.7026 15.7258 44.3871 13.3741 44.3871 10.4839ZM49.5484 19.9194C48.4491 19.9194 47.7369 18.98 47.4839 18.5828V17.5134C48.1381 17.7125 48.8311 17.8226 49.5484 17.8226C50.2656 17.8226 50.9587 17.7125 51.6129 17.5134V18.5817C51.3569 18.9841 50.6457 19.9194 49.5484 19.9194Z" fill="#517EA1" stroke="#FAFCFE" stroke-width="0.4" mask="url(#path-1-inside-1)"/>
<path d="M23.8432 0.1H25.7077V1.99677H23.8432V0.1Z" fill="#517EA1" stroke="#FAFCFE" stroke-width="0.2"/>
<path d="M23.8432 4.2947H25.7077V15.627H23.8432V4.2947Z" fill="#517EA1" stroke="#FAFCFE" stroke-width="0.2"/>
<path d="M38.2953 0.1H40.1598V1.99677H38.2953V0.1Z" fill="#517EA1" stroke="#FAFCFE" stroke-width="0.2"/>
<path d="M38.2953 4.2947H40.1598V15.627H38.2953V4.2947Z" fill="#517EA1" stroke="#FAFCFE" stroke-width="0.2"/>
<path d="M27.9701 4.2947H29.8346V11.4334H27.9701V4.2947Z" fill="#517EA1" stroke="#FAFCFE" stroke-width="0.2"/>
<path d="M27.9701 13.7274H29.8346V15.6242H27.9701V13.7274Z" fill="#517EA1" stroke="#FAFCFE" stroke-width="0.2"/>
<path d="M34.1645 4.2947H36.029V11.4334H34.1645V4.2947Z" fill="#517EA1" stroke="#FAFCFE" stroke-width="0.2"/>
<path d="M34.1645 13.7274H36.029V15.6242H34.1645V13.7274Z" fill="#517EA1" stroke="#FAFCFE" stroke-width="0.2"/>
</svg>
