<svg width="68" height="68" viewBox="0 0 68 68" fill="none" xmlns="http://www.w3.org/2000/svg">
<g clip-path="url(#clip0)">
<mask id="path-1-inside-1" fill="white">
<path d="M41.2662 34.5548L36.1925 32.5978L33.2804 29.6857C33.091 29.4963 32.8431 29.3991 32.5933 29.3947V27.015C33.9715 25.5507 34.9507 23.6919 35.3383 21.5961C35.3391 21.5952 35.34 21.5941 35.3409 21.5933C35.5946 21.6083 35.8507 21.5897 36.1038 21.5379C37.4726 21.2577 38.4662 19.987 38.4662 18.5163V17.7536C38.4662 16.8915 38.1118 16.1014 37.537 15.5419C38.4711 10.5121 37.717 6.41537 35.3467 3.67824C33.0615 1.03939 29.3773 -0.221001 24.6919 0.031741C20.3282 0.267616 17.5256 2.28862 16.6657 3.00116C15.4555 3.15841 12.0041 4.03059 12.0041 8.85673C12.0041 11.5291 12.4382 13.7515 12.7432 14.9835C11.7161 15.4636 11.0254 16.5356 11.0254 17.7649V18.5162C11.0254 19.9868 12.0188 21.2576 13.3878 21.5378C13.6407 21.5896 13.8972 21.6082 14.1506 21.5932C14.1515 21.5941 14.1524 21.5952 14.1532 21.5961C14.5408 23.6918 15.52 25.5506 16.8982 27.0149V29.3946C16.6484 29.399 16.4006 29.4962 16.2112 29.6856L13.2991 32.5976L7.5923 34.7989C4.84786 35.8574 3.08319 38.5433 3.20086 41.4824L4.01141 61.7202C4.03293 62.2564 4.47426 62.6765 5.00604 62.6765C5.01959 62.6765 5.03314 62.6762 5.04669 62.6757C5.5964 62.6536 6.02405 62.1903 6.00214 61.6405L5.19158 41.403C5.17007 40.8651 5.23794 40.3393 5.3831 39.8419L8.61868 43.0775C9.53973 43.9985 10.0469 45.2232 10.0469 46.5257V61.6806C10.0469 62.2308 10.4929 62.6767 11.043 62.6767C11.5931 62.6767 12.0391 62.2308 12.0391 61.6806V46.5257C12.0391 44.691 11.3247 42.966 10.0273 41.6687L6.3764 38.0178C6.888 37.4262 7.54475 36.9528 8.30936 36.6578L13.6339 34.604L17.6988 40.7012C18.1915 41.4404 18.9812 41.9146 19.8654 42.0021C19.9638 42.0118 20.0619 42.0166 20.1597 42.0166C20.703 42.0166 21.229 41.8645 21.6877 41.5853L20.8147 61.6372C20.7908 62.1868 21.2169 62.6518 21.7666 62.6757C21.7813 62.6763 21.7961 62.6766 21.8107 62.6766C22.3409 62.6766 22.7818 62.2588 22.805 61.7238L23.6145 43.1315H25.8781L26.6875 61.7238C26.7108 62.2586 27.1517 62.6766 27.6819 62.6766C27.6965 62.6766 27.7113 62.6763 27.726 62.6757C28.2756 62.6518 28.7018 62.1868 28.6779 61.6372L27.8049 41.5853C28.2636 41.8645 28.7894 42.0166 29.3328 42.0166C29.4304 42.0166 29.5287 42.0118 29.627 42.0021C30.5103 41.9148 31.3 41.4406 31.7929 40.7013L35.8577 34.6042L40.5491 36.4137C40.667 36.4592 40.7881 36.4807 40.9074 36.4807C41.3071 36.4807 41.6845 36.2382 41.8369 35.8428C42.0351 35.3295 41.7794 34.7529 41.2662 34.5548ZM16.1101 21.223C15.93 20.2433 15.0221 19.5326 14.0445 19.6038C13.9605 19.6098 13.8739 19.6039 13.7872 19.5863C13.3484 19.4965 13.0176 19.0364 13.0176 18.5163V17.765C13.0176 17.2561 13.3601 16.7973 13.7973 16.7206C14.1653 16.656 14.5177 16.7912 14.7411 17.0825C14.9266 17.3243 15.1739 17.4972 15.4569 17.5828C15.8704 17.7075 16.3267 17.6343 16.6775 17.3866C17.4871 16.8151 18.1733 16.0902 18.7169 15.2323C19.0114 14.7676 18.8734 14.1521 18.4088 13.8577C17.9438 13.5629 17.3287 13.7012 17.0342 14.1658C16.7242 14.6549 16.3534 15.0847 15.928 15.4482C15.5891 15.1497 15.1885 14.936 14.7582 14.8182C14.4914 13.8134 13.9963 11.582 13.9963 8.8566C13.9963 7.2343 14.4991 6.09344 15.4909 5.46616C16.263 4.97768 17.0782 4.95895 17.0784 4.95882C17.3332 4.95882 17.581 4.85855 17.766 4.6835C17.7915 4.65919 20.3747 2.26007 24.7994 2.02101C28.8472 1.80173 31.9735 2.82625 33.8404 4.98219C35.7317 7.1663 36.355 10.5221 35.6589 14.7204C35.3595 14.7065 35.0276 14.7282 34.6976 14.7861L33.6994 12.3887C33.5083 11.9297 33.0077 11.6821 32.5269 11.8082C32.4297 11.8337 22.7483 14.3039 18.6662 9.2221C18.3218 8.79325 17.6948 8.72472 17.2658 9.06937C16.837 9.41388 16.7685 10.0408 17.1131 10.4697C21.2538 15.6249 29.4996 14.4691 32.182 13.9275L32.9579 15.7909C33.2752 16.5527 34.0867 16.9688 34.8871 16.7802C35.201 16.7062 35.5424 16.6928 35.6914 16.7224C36.1374 16.8111 36.4737 17.2543 36.4737 17.7534V18.5162C36.4737 19.0364 36.1427 19.4963 35.7042 19.5861C35.6172 19.6039 35.5309 19.6098 35.4468 19.6037C34.4696 19.5322 33.5611 20.2431 33.3813 21.223C32.6158 25.3904 28.984 28.4151 24.7457 28.4151C20.5073 28.4151 16.8755 25.3904 16.1101 21.223ZM20.836 39.7428C20.6313 39.9473 20.3488 40.0484 20.0611 40.0197C19.7733 39.9913 19.5163 39.837 19.3559 39.5963L15.2608 33.4535L16.9608 31.7535L23.2885 37.2902L20.836 39.7428ZM23.7006 41.1395L23.7663 39.6297L24.7456 38.6503L25.7249 39.6297L25.7907 41.1395H23.7006ZM24.7456 35.9181L18.8901 30.7946V28.6766C20.5864 29.7758 22.6024 30.4074 24.7456 30.4074C26.8888 30.4074 28.9047 29.7758 30.6009 28.6766V30.7946L24.7456 35.9181ZM30.1355 39.5962C29.9749 39.837 29.7179 39.9913 29.4301 40.0197C29.2609 40.0369 28.9355 40.0226 28.6556 39.7428L26.2031 37.2902L32.5306 31.7535L34.2306 33.4535L30.1355 39.5962Z"/>
</mask>
<path d="M41.2662 34.5548L36.1925 32.5978L33.2804 29.6857C33.091 29.4963 32.8431 29.3991 32.5933 29.3947V27.015C33.9715 25.5507 34.9507 23.6919 35.3383 21.5961C35.3391 21.5952 35.34 21.5941 35.3409 21.5933C35.5946 21.6083 35.8507 21.5897 36.1038 21.5379C37.4726 21.2577 38.4662 19.987 38.4662 18.5163V17.7536C38.4662 16.8915 38.1118 16.1014 37.537 15.5419C38.4711 10.5121 37.717 6.41537 35.3467 3.67824C33.0615 1.03939 29.3773 -0.221001 24.6919 0.031741C20.3282 0.267616 17.5256 2.28862 16.6657 3.00116C15.4555 3.15841 12.0041 4.03059 12.0041 8.85673C12.0041 11.5291 12.4382 13.7515 12.7432 14.9835C11.7161 15.4636 11.0254 16.5356 11.0254 17.7649V18.5162C11.0254 19.9868 12.0188 21.2576 13.3878 21.5378C13.6407 21.5896 13.8972 21.6082 14.1506 21.5932C14.1515 21.5941 14.1524 21.5952 14.1532 21.5961C14.5408 23.6918 15.52 25.5506 16.8982 27.0149V29.3946C16.6484 29.399 16.4006 29.4962 16.2112 29.6856L13.2991 32.5976L7.5923 34.7989C4.84786 35.8574 3.08319 38.5433 3.20086 41.4824L4.01141 61.7202C4.03293 62.2564 4.47426 62.6765 5.00604 62.6765C5.01959 62.6765 5.03314 62.6762 5.04669 62.6757C5.5964 62.6536 6.02405 62.1903 6.00214 61.6405L5.19158 41.403C5.17007 40.8651 5.23794 40.3393 5.3831 39.8419L8.61868 43.0775C9.53973 43.9985 10.0469 45.2232 10.0469 46.5257V61.6806C10.0469 62.2308 10.4929 62.6767 11.043 62.6767C11.5931 62.6767 12.0391 62.2308 12.0391 61.6806V46.5257C12.0391 44.691 11.3247 42.966 10.0273 41.6687L6.3764 38.0178C6.888 37.4262 7.54475 36.9528 8.30936 36.6578L13.6339 34.604L17.6988 40.7012C18.1915 41.4404 18.9812 41.9146 19.8654 42.0021C19.9638 42.0118 20.0619 42.0166 20.1597 42.0166C20.703 42.0166 21.229 41.8645 21.6877 41.5853L20.8147 61.6372C20.7908 62.1868 21.2169 62.6518 21.7666 62.6757C21.7813 62.6763 21.7961 62.6766 21.8107 62.6766C22.3409 62.6766 22.7818 62.2588 22.805 61.7238L23.6145 43.1315H25.8781L26.6875 61.7238C26.7108 62.2586 27.1517 62.6766 27.6819 62.6766C27.6965 62.6766 27.7113 62.6763 27.726 62.6757C28.2756 62.6518 28.7018 62.1868 28.6779 61.6372L27.8049 41.5853C28.2636 41.8645 28.7894 42.0166 29.3328 42.0166C29.4304 42.0166 29.5287 42.0118 29.627 42.0021C30.5103 41.9148 31.3 41.4406 31.7929 40.7013L35.8577 34.6042L40.5491 36.4137C40.667 36.4592 40.7881 36.4807 40.9074 36.4807C41.3071 36.4807 41.6845 36.2382 41.8369 35.8428C42.0351 35.3295 41.7794 34.7529 41.2662 34.5548ZM16.1101 21.223C15.93 20.2433 15.0221 19.5326 14.0445 19.6038C13.9605 19.6098 13.8739 19.6039 13.7872 19.5863C13.3484 19.4965 13.0176 19.0364 13.0176 18.5163V17.765C13.0176 17.2561 13.3601 16.7973 13.7973 16.7206C14.1653 16.656 14.5177 16.7912 14.7411 17.0825C14.9266 17.3243 15.1739 17.4972 15.4569 17.5828C15.8704 17.7075 16.3267 17.6343 16.6775 17.3866C17.4871 16.8151 18.1733 16.0902 18.7169 15.2323C19.0114 14.7676 18.8734 14.1521 18.4088 13.8577C17.9438 13.5629 17.3287 13.7012 17.0342 14.1658C16.7242 14.6549 16.3534 15.0847 15.928 15.4482C15.5891 15.1497 15.1885 14.936 14.7582 14.8182C14.4914 13.8134 13.9963 11.582 13.9963 8.8566C13.9963 7.2343 14.4991 6.09344 15.4909 5.46616C16.263 4.97768 17.0782 4.95895 17.0784 4.95882C17.3332 4.95882 17.581 4.85855 17.766 4.6835C17.7915 4.65919 20.3747 2.26007 24.7994 2.02101C28.8472 1.80173 31.9735 2.82625 33.8404 4.98219C35.7317 7.1663 36.355 10.5221 35.6589 14.7204C35.3595 14.7065 35.0276 14.7282 34.6976 14.7861L33.6994 12.3887C33.5083 11.9297 33.0077 11.6821 32.5269 11.8082C32.4297 11.8337 22.7483 14.3039 18.6662 9.2221C18.3218 8.79325 17.6948 8.72472 17.2658 9.06937C16.837 9.41388 16.7685 10.0408 17.1131 10.4697C21.2538 15.6249 29.4996 14.4691 32.182 13.9275L32.9579 15.7909C33.2752 16.5527 34.0867 16.9688 34.8871 16.7802C35.201 16.7062 35.5424 16.6928 35.6914 16.7224C36.1374 16.8111 36.4737 17.2543 36.4737 17.7534V18.5162C36.4737 19.0364 36.1427 19.4963 35.7042 19.5861C35.6172 19.6039 35.5309 19.6098 35.4468 19.6037C34.4696 19.5322 33.5611 20.2431 33.3813 21.223C32.6158 25.3904 28.984 28.4151 24.7457 28.4151C20.5073 28.4151 16.8755 25.3904 16.1101 21.223ZM20.836 39.7428C20.6313 39.9473 20.3488 40.0484 20.0611 40.0197C19.7733 39.9913 19.5163 39.837 19.3559 39.5963L15.2608 33.4535L16.9608 31.7535L23.2885 37.2902L20.836 39.7428ZM23.7006 41.1395L23.7663 39.6297L24.7456 38.6503L25.7249 39.6297L25.7907 41.1395H23.7006ZM24.7456 35.9181L18.8901 30.7946V28.6766C20.5864 29.7758 22.6024 30.4074 24.7456 30.4074C26.8888 30.4074 28.9047 29.7758 30.6009 28.6766V30.7946L24.7456 35.9181ZM30.1355 39.5962C29.9749 39.837 29.7179 39.9913 29.4301 40.0197C29.2609 40.0369 28.9355 40.0226 28.6556 39.7428L26.2031 37.2902L32.5306 31.7535L34.2306 33.4535L30.1355 39.5962Z" fill="#517EA1" stroke="#FAFCFE" stroke-width="0.4" mask="url(#path-1-inside-1)"/>
<path d="M54.0572 42.5875V42.6875H54.1572H60.6136C62.8688 42.6875 64.7036 44.5223 64.7036 46.7775L64.7037 49.7347C64.7037 50.8013 64.3449 51.8282 63.6579 52.7818L63.6391 52.808V52.8403V63.92C63.6391 66.1154 61.8527 67.9017 59.6573 67.9017H36.0184C33.823 67.9017 32.0367 66.1154 32.0367 63.92V52.8403V52.808L32.0178 52.7818C31.3309 51.8283 30.9721 50.8014 30.9721 49.7348V46.7775C30.9721 44.5223 32.8069 42.6875 35.062 42.6875H41.5185H41.6185V42.5875V40.3897C41.6185 38.7217 42.9757 37.3644 44.6438 37.3644H51.0318C52.6998 37.3644 54.0572 38.7216 54.0572 40.3897V42.5875ZM43.4105 40.3896V40.3896V42.5874V42.6874H43.5105H52.1648H52.2648V42.5874V40.3896C52.2648 39.7096 51.7118 39.1565 51.0317 39.1565H44.6438C43.9638 39.1565 43.4107 39.7095 43.4105 40.3896ZM58.3155 54.407V54.5626L58.457 54.498C59.8537 53.8612 60.9646 53.114 61.7278 52.3059C62.491 51.4977 62.9112 50.623 62.9112 49.735V46.7776C62.9112 45.5105 61.8806 44.4799 60.6134 44.4799H35.0619C33.7948 44.4799 32.7641 45.5105 32.7641 46.7776V49.735C32.7641 50.623 33.1844 51.4977 33.9476 52.3058C34.7108 53.1139 35.8217 53.8612 37.2183 54.498L37.3598 54.5626V54.407V54.2301C37.3598 53.7353 37.761 53.334 38.2559 53.334H42.5144C43.0093 53.334 43.4105 53.7353 43.4105 54.2301V56.1315V56.2185L43.4966 56.2305C44.9005 56.4271 46.3564 56.5279 47.8377 56.5279C48.1818 56.5279 48.5303 56.5225 48.8739 56.5115L48.8741 56.5115C49.3721 56.4945 49.7822 56.8836 49.7979 57.3787L49.7979 57.3787C49.8137 57.8734 49.4254 58.2871 48.9308 58.3028L48.9307 58.3028C48.5684 58.3143 48.2007 58.3201 47.8378 58.3201C46.3414 58.3201 44.8681 58.2221 43.4423 58.0316L43.3522 58.0196L43.3317 58.1081C43.0207 59.4478 41.8178 60.4494 40.3853 60.4494C38.7173 60.4494 37.36 59.0922 37.36 57.424V56.5722V56.5045L37.2971 56.4793C36.0099 55.9642 34.901 55.3658 33.9876 54.7025L33.8289 54.5872V54.7834V63.92C33.8289 65.1274 34.811 66.1096 36.0184 66.1096H59.6572C60.8647 66.1096 61.8467 65.1275 61.8466 63.9201V54.7836V54.5874L61.6878 54.7027C60.7745 55.3659 59.6655 55.9644 58.3784 56.4793L58.3155 56.5045V56.5722V57.424C58.3155 59.092 56.9582 60.4494 55.2902 60.4494C53.6222 60.4494 52.2648 59.0922 52.2648 57.424V54.2301C52.2648 53.7353 52.6661 53.334 53.1609 53.334H57.4194C57.9143 53.334 58.3155 53.7353 58.3155 54.2301V54.407ZM56.5236 55.2261V55.1261H56.4236H54.1573H54.0573V55.2261V57.4239C54.0573 58.1039 54.6105 58.657 55.2905 58.657C55.9704 58.657 56.5236 58.104 56.5236 57.4239V55.2261ZM39.252 55.1261H39.152V55.2261V57.4239C39.152 58.104 39.7052 58.657 40.3852 58.657C41.0651 58.657 41.6183 58.104 41.6183 57.4239V55.2261V55.1261H41.5183H39.252ZM48.9339 58.4027C49.4838 58.3853 49.9154 57.9254 49.8979 57.3755C49.8805 56.8257 49.4245 56.3926 48.8707 56.4116C48.5282 56.4225 48.1807 56.4279 47.8377 56.4279C46.3609 56.4279 44.9097 56.3274 43.5105 56.1315L48.9339 58.4027Z" fill="#517EA1" stroke="#FAFCFE" stroke-width="0.2"/>
</g>
<defs>
<clipPath id="clip0">
<rect width="68" height="68" fill="white"/>
</clipPath>
</defs>
</svg>
