<svg width="37" height="37" viewBox="0 0 37 37" fill="none" xmlns="http://www.w3.org/2000/svg">
<path d="M36.4219 3.46875H0.578125C0.258422 3.46875 0 3.72775 0 4.04688V8.67188V32.9531C0 33.2722 0.258422 33.5312 0.578125 33.5312H36.4219C36.7416 33.5312 37 33.2722 37 32.9531V8.67188V4.04688C37 3.72775 36.7416 3.46875 36.4219 3.46875ZM35.8438 32.375H1.15625V9.25H35.8438V32.375ZM35.8438 8.09375H1.15625V4.625H35.8438V8.09375Z" fill="#517EA1"/>
<path d="M4.625 5.78125H3.46875V6.9375H4.625V5.78125Z" fill="#517EA1"/>
<path d="M6.9375 5.78125H5.78125V6.9375H6.9375V5.78125Z" fill="#517EA1"/>
<path d="M9.25 5.78125H8.09375V6.9375H9.25V5.78125Z" fill="#517EA1"/>
<path d="M33.5312 5.78125H30.0625V6.9375H33.5312V5.78125Z" fill="#517EA1"/>
<path d="M28.8091 25.6951L25.3404 20.492C25.1259 20.17 24.5929 20.17 24.3784 20.492L20.9096 25.6951C20.8466 25.7899 20.8125 25.9021 20.8125 26.016V26.5941C20.8125 26.9132 21.0709 27.1722 21.3906 27.1722H22.5469V29.4847C22.5469 29.8039 22.8053 30.0629 23.125 30.0629H26.5938C26.9135 30.0629 27.1719 29.8039 27.1719 29.4847V27.1722H28.3281C28.6478 27.1722 28.9062 26.9132 28.9062 26.5941V26.016C28.9062 25.9021 28.8721 25.7899 28.8091 25.6951ZM26.5938 26.016C26.274 26.016 26.0156 26.275 26.0156 26.5941V28.9066H23.7031V26.5941C23.7031 26.275 23.4447 26.016 23.125 26.016H22.0855L24.8594 21.8552L27.6332 26.016H26.5938Z" fill="#517EA1"/>
<path d="M32.375 11.5625H4.625C3.98733 11.5625 3.46875 12.0811 3.46875 12.7188V23.125C3.46875 23.7627 3.98733 24.2812 4.625 24.2812H20.8125V23.125H4.625V12.7188H32.375V23.125H28.9062V24.2812H32.375C33.0127 24.2812 33.5312 23.7627 33.5312 23.125V12.7188C33.5312 12.0811 33.0127 11.5625 32.375 11.5625Z" fill="#517EA1"/>
<path d="M4.625 25.4375H3.46875V26.5938H4.625V25.4375Z" fill="#517EA1"/>
<path d="M4.625 27.75H3.46875V28.9062H4.625V27.75Z" fill="#517EA1"/>
<path d="M15.0312 25.4375H5.78125V26.5938H15.0312V25.4375Z" fill="#517EA1"/>
<path d="M6.9375 27.75H5.78125V28.9062H6.9375V27.75Z" fill="#517EA1"/>
<path d="M19.6562 27.75H8.09375V28.9062H19.6562V27.75Z" fill="#517EA1"/>
<path d="M17.3438 25.4375H16.1875V26.5938H17.3438V25.4375Z" fill="#517EA1"/>
<path d="M19.6562 25.4375H18.5V26.5938H19.6562V25.4375Z" fill="#517EA1"/>
<path d="M27.75 13.875H24.2812V15.0312H27.75V13.875Z" fill="#517EA1"/>
<path d="M31.2188 13.875H28.9062V15.0312H31.2188V13.875Z" fill="#517EA1"/>
</svg>
