<svg width="36" height="36" viewBox="0 0 36 36" fill="none" xmlns="http://www.w3.org/2000/svg">
<path d="M31.7334 29.7964C31.6534 24.9039 26.651 23.4584 22.9984 22.4029C22.5723 22.2798 22.1624 22.1613 21.7783 22.0431V20.0247C22.5251 19.5567 23.1794 18.9543 23.7072 18.2516H25.9322C27.021 18.2516 27.9069 17.3658 27.9069 16.277V13.8866C28.0389 13.5789 28.1122 13.2403 28.1122 12.8847V12.1413C28.1122 11.7861 28.0389 11.4477 27.9069 11.1402V9.90707C27.9069 4.44433 23.4627 0 18 0C12.5384 0 8.09513 4.44433 8.09513 9.90714V11.105C8.09513 11.1144 8.09619 11.1235 8.09654 11.1328C7.96252 11.4423 7.88785 11.7832 7.88785 12.1414V12.8848C7.88785 14.2902 9.03029 15.4335 10.4345 15.4335H11.0156C11.418 17.3635 12.6029 19.0095 14.2217 20.0244V22.0431C13.8376 22.1613 13.4278 22.2797 13.0016 22.4029C9.34902 23.4584 4.34669 24.9039 4.26667 29.7964C4.2666 29.8003 4.2666 29.8041 4.2666 29.808V35.2969C4.2666 35.6852 4.58146 36 4.96973 36H7.05436C7.44263 36 7.75749 35.6852 7.75749 35.2969C7.75749 34.9085 7.44263 34.5937 7.05436 34.5937H5.67279V29.8138C5.70239 28.1068 6.48652 26.8272 8.14034 25.7869C9.23167 25.1005 10.5659 24.6114 11.881 24.2022L13.5798 27.5121C13.7692 27.8811 14.254 28.0064 14.5985 27.774L15.356 27.263L16.0063 29.7073L14.8921 34.5937H13.3682C12.98 34.5937 12.6651 34.9085 12.6651 35.2968C12.6651 35.6851 12.98 35.9999 13.3682 35.9999H31.0303C31.4186 35.9999 31.7334 35.6851 31.7334 35.2968V29.8079C31.7334 29.8041 31.7334 29.8003 31.7334 29.7964ZM22.608 23.7538C22.6544 23.7672 22.7015 23.7809 22.7482 23.7944L21.5327 26.1649L19.258 24.6311L21.1853 23.331C21.6331 23.472 22.1092 23.6097 22.608 23.7538ZM18.0005 25.4792L19.4104 26.43L18.729 28.9912H17.271L16.5898 26.4308L18.0005 25.4792ZM18.0004 23.7831L15.6279 22.1833V20.703C16.3705 20.9657 17.1686 21.1097 18 21.1097C18.8313 21.1097 19.6295 20.9661 20.372 20.7035V22.1833L18.0004 23.7831ZM23.7283 10.0357C23.7187 10.0296 23.7091 10.0235 23.6995 10.0174C22.2568 9.09896 21.0107 8.30577 19.0582 8.8644C19.0401 8.86961 19.0221 8.87551 19.0044 8.88212C18.5905 9.03758 18.2141 9.1825 17.85 9.32263C15.6265 10.1785 14.4125 10.646 12.2716 10.5858V10.0227C12.2716 6.864 14.8414 4.29421 18 4.29421C21.1585 4.29421 23.7283 6.864 23.7283 10.0227V10.0357H23.7283ZM26.5006 16.277C26.5006 16.5904 26.2457 16.8454 25.9322 16.8454H24.531C24.7289 16.3969 24.8822 15.9244 24.9845 15.4334H25.5656C25.8957 15.4334 26.2109 15.3696 26.5007 15.2546V16.277H26.5006ZM26.7059 12.8847C26.7059 13.5147 26.1944 14.0272 25.5655 14.0272H25.134C25.1341 14.0097 25.1347 11.0009 25.1347 11.0009H25.5656C26.1944 11.0009 26.706 11.5125 26.706 12.1413V12.8847H26.7059ZM10.4345 14.0273C9.8057 14.0273 9.29411 13.5147 9.29411 12.8848V12.1414C9.29411 11.5125 9.80563 11.0009 10.4345 11.0009H10.8655C10.8655 11.0009 10.866 14.0098 10.8662 14.0273H10.4345ZM10.8786 9.5946H10.4344C10.1057 9.5946 9.79178 9.65788 9.50308 9.77179C9.57571 5.14661 13.3591 1.40626 18 1.40626C22.6423 1.40626 26.4267 5.14704 26.4989 9.77256C26.2097 9.65816 25.895 9.5946 25.5655 9.5946H25.1214C24.8992 5.85902 21.7902 2.88796 18 2.88796C14.2097 2.88796 11.1008 5.85909 10.8786 9.5946ZM12.314 14.659C12.3139 14.6583 12.3138 14.6576 12.3137 14.6569C12.287 14.4331 12.2717 14.2059 12.2717 13.975V11.992C14.6773 12.0506 16.1123 11.4985 18.3552 10.6351C18.7085 10.4991 19.0736 10.3585 19.4714 10.209C20.7996 9.83823 21.5638 10.3249 22.9443 11.2037C23.1839 11.3562 23.4467 11.5233 23.7283 11.695V13.975C23.7283 15.0206 23.4454 16.0008 22.9541 16.8455H18C17.6118 16.8455 17.2969 17.1603 17.2969 17.5486C17.2969 17.9369 17.6118 18.2517 18 18.2517H21.8056C20.793 19.1539 19.4597 19.7035 18 19.7035C15.073 19.7035 12.6532 17.4962 12.314 14.659ZM14.4691 26.165L13.2522 23.7943C13.2988 23.7808 13.3457 23.7672 13.392 23.7538C13.8908 23.6097 14.367 23.4719 14.8149 23.331L16.743 24.6312L14.4691 26.165ZM16.3345 34.5937L17.2913 30.3975H18.7089L19.6673 34.5937H16.3345ZM30.3272 34.5937H21.1097L19.9937 29.7072L20.6443 27.262L21.4037 27.774C21.7483 28.0064 22.2331 27.8811 22.4224 27.5119L24.1193 24.2024C25.4344 24.6115 26.7685 25.1005 27.8598 25.7869C29.5135 26.8271 30.2977 28.1068 30.3273 29.8138V34.5937H30.3272Z" fill="#517EA1"/>
<path d="M27.5504 31.0781H24.0068C23.6186 31.0781 23.3037 31.3929 23.3037 31.7812C23.3037 32.1696 23.6186 32.4844 24.0068 32.4844H27.5504C27.9386 32.4844 28.2535 32.1696 28.2535 31.7812C28.2535 31.3929 27.9387 31.0781 27.5504 31.0781Z" fill="#517EA1"/>
<path d="M10.2119 34.5938C9.82365 34.5938 9.50879 34.9085 9.50879 35.2969C9.50879 35.6852 9.82365 36 10.2119 36H10.2139C10.6021 36 10.916 35.6852 10.916 35.2969C10.916 34.9085 10.6002 34.5938 10.2119 34.5938Z" fill="#517EA1"/>
</svg>
