<svg width="35" height="35" viewBox="0 0 35 35" fill="none" xmlns="http://www.w3.org/2000/svg">
<path d="M29.8047 30.0962C29.5215 30.0962 29.292 30.3257 29.292 30.6089V33.1198C29.292 33.591 28.9087 33.9743 28.4375 33.9743H6.5625C6.0913 33.9743 5.70801 33.591 5.70801 33.1198V6.54639C5.70801 6.26324 5.47846 6.03369 5.19531 6.03369C4.91217 6.03369 4.68262 6.26324 4.68262 6.54639V33.1198C4.68262 34.1564 5.5259 34.9997 6.5625 34.9997H28.4375C29.474 34.9997 30.3174 34.1564 30.3174 33.1198V30.6089C30.3174 30.3257 30.0879 30.0962 29.8047 30.0962Z" fill="#517EA1"/>
<path d="M30.1673 9.7205L20.597 0.150186C20.5007 0.0540039 20.3703 0 20.2344 0H6.5625C5.5259 0 4.68262 0.843281 4.68262 1.87988V4.33118C4.68262 4.61433 4.91217 4.84388 5.19531 4.84388C5.47846 4.84388 5.70801 4.61433 5.70801 4.33118V1.87988C5.70801 1.40868 6.0913 1.02539 6.5625 1.02539H19.7217V8.71582C19.7217 9.75242 20.565 10.5957 21.6016 10.5957H29.292V28.4217C29.292 28.7049 29.5215 28.9344 29.8047 28.9344C30.0879 28.9344 30.3174 28.7049 30.3174 28.4217V10.083C30.3174 9.94704 30.2634 9.81661 30.1673 9.7205ZM20.7471 8.71582V1.75041L28.567 9.57031H21.6016C21.1304 9.57031 20.7471 9.18702 20.7471 8.71582Z" fill="#517EA1"/>
<path d="M10.8691 17.6025C11.7173 17.6025 12.4072 16.9126 12.4072 16.0645C12.4072 15.2163 11.7173 14.5264 10.8691 14.5264C10.021 14.5264 9.33105 15.2163 9.33105 16.0645C9.33105 16.9126 10.021 17.6025 10.8691 17.6025ZM10.8691 15.5518C11.1519 15.5518 11.3818 15.7817 11.3818 16.0645C11.3818 16.3472 11.1519 16.5771 10.8691 16.5771C10.5864 16.5771 10.3564 16.3472 10.3564 16.0645C10.3564 15.7817 10.5864 15.5518 10.8691 15.5518Z" fill="#517EA1"/>
<path d="M15.5176 17.6025H24.1309C24.9789 17.6025 25.6689 16.9126 25.6689 16.0645C25.6689 15.2163 24.9789 14.5264 24.1309 14.5264H15.5176C14.6694 14.5264 13.9795 15.2163 13.9795 16.0645C13.9795 16.9126 14.6694 17.6025 15.5176 17.6025ZM15.5176 15.5518H24.1309C24.4136 15.5518 24.6436 15.7817 24.6436 16.0645C24.6436 16.3472 24.4136 16.5771 24.1309 16.5771H15.5176C15.2348 16.5771 15.0049 16.3472 15.0049 16.0645C15.0049 15.7817 15.2348 15.5518 15.5176 15.5518Z" fill="#517EA1"/>
<path d="M10.8691 21.7041C11.7173 21.7041 12.4072 21.0142 12.4072 20.166C12.4072 19.3179 11.7173 18.6279 10.8691 18.6279C10.021 18.6279 9.33105 19.3179 9.33105 20.166C9.33105 21.0142 10.021 21.7041 10.8691 21.7041ZM10.8691 19.6533C11.1519 19.6533 11.3818 19.8833 11.3818 20.166C11.3818 20.4488 11.1519 20.6787 10.8691 20.6787C10.5864 20.6787 10.3564 20.4488 10.3564 20.166C10.3564 19.8833 10.5864 19.6533 10.8691 19.6533Z" fill="#517EA1"/>
<path d="M15.5176 21.7041H24.1309C24.9789 21.7041 25.6689 21.0142 25.6689 20.166C25.6689 19.3179 24.9789 18.6279 24.1309 18.6279H15.5176C14.6694 18.6279 13.9795 19.3179 13.9795 20.166C13.9795 21.0142 14.6694 21.7041 15.5176 21.7041ZM15.5176 19.6533H24.1309C24.4136 19.6533 24.6436 19.8833 24.6436 20.166C24.6436 20.4488 24.4136 20.6787 24.1309 20.6787H15.5176C15.2348 20.6787 15.0049 20.4488 15.0049 20.166C15.0049 19.8833 15.2348 19.6533 15.5176 19.6533Z" fill="#517EA1"/>
<path d="M10.8691 25.8057C11.7173 25.8057 12.4072 25.1157 12.4072 24.2676C12.4072 23.4194 11.7173 22.7295 10.8691 22.7295C10.021 22.7295 9.33105 23.4194 9.33105 24.2676C9.33105 25.1157 10.021 25.8057 10.8691 25.8057ZM10.8691 23.7549C11.1519 23.7549 11.3818 23.9848 11.3818 24.2676C11.3818 24.5503 11.1519 24.7803 10.8691 24.7803C10.5864 24.7803 10.3564 24.5503 10.3564 24.2676C10.3564 23.9848 10.5864 23.7549 10.8691 23.7549Z" fill="#517EA1"/>
<path d="M15.5176 25.8057H16.422C16.7052 25.8057 16.9347 25.5761 16.9347 25.293C16.9347 25.0098 16.7052 24.7803 16.422 24.7803H15.5176C15.2348 24.7803 15.0049 24.5503 15.0049 24.2676C15.0049 23.9848 15.2348 23.7549 15.5176 23.7549H24.1309C24.4136 23.7549 24.6436 23.9848 24.6436 24.2676C24.6436 24.5503 24.4136 24.7803 24.1309 24.7803H18.6095C18.3263 24.7803 18.0968 25.0098 18.0968 25.293C18.0968 25.5761 18.3263 25.8057 18.6095 25.8057H24.1309C24.9789 25.8057 25.6689 25.1157 25.6689 24.2676C25.6689 23.4194 24.9789 22.7295 24.1309 22.7295H15.5176C14.6694 22.7295 13.9795 23.4194 13.9795 24.2676C13.9795 25.1157 14.6694 25.8057 15.5176 25.8057Z" fill="#517EA1"/>
</svg>
