<svg width="36" height="36" viewBox="0 0 36 36" fill="none" xmlns="http://www.w3.org/2000/svg">
<path d="M27 33.75C26.9261 33.7501 26.853 33.7356 26.7847 33.7073C26.7164 33.679 26.6544 33.6375 26.6022 33.5852L24.3189 31.3019C24.1523 31.6097 23.9161 31.8743 23.6291 32.0747C23.3421 32.2751 23.0123 32.4057 22.6659 32.4561C22.3195 32.5065 21.9662 32.4754 21.634 32.3651C21.3018 32.2549 20.9999 32.0686 20.7524 31.8211C20.5049 31.5736 20.3186 31.2717 20.2084 30.9395C20.0981 30.6073 20.067 30.2539 20.1174 29.9076C20.1678 29.5612 20.2984 29.2314 20.4988 28.9444C20.6992 28.6574 20.9638 28.4212 21.2716 28.2545L19.2897 26.2727C19.1843 26.1672 19.125 26.0242 19.125 25.875C19.125 25.7258 19.1843 25.5827 19.2897 25.4772L21.5731 23.1939C21.2653 23.0272 21.0007 22.791 20.8003 22.504C20.5999 22.217 20.4693 21.8872 20.4189 21.5409C20.3685 21.1945 20.3996 20.8411 20.5099 20.5089C20.6201 20.1767 20.8064 19.8748 21.0539 19.6273C21.3014 19.3798 21.6033 19.1936 21.9355 19.0833C22.2677 18.9731 22.621 18.9419 22.9674 18.9923C23.3138 19.0428 23.6436 19.1734 23.9306 19.3738C24.2176 19.5741 24.4538 19.8388 24.6204 20.1466L26.6022 18.1647C26.7078 18.0592 26.8508 18 27 18C27.1492 18 27.2923 18.0592 27.3978 18.1647L34.7103 25.4772C34.8158 25.5827 34.875 25.7258 34.875 25.875C34.875 26.0242 34.8158 26.1672 34.7103 26.2727L27.3978 33.5852C27.3456 33.6375 27.2836 33.679 27.2153 33.7073C27.1471 33.7356 27.0739 33.7501 27 33.75ZM24.027 29.6521C24.1009 29.6521 24.1741 29.6666 24.2424 29.6949C24.3107 29.7232 24.3727 29.7646 24.425 29.8169L27 32.392L33.517 25.875L27 19.3579L24.7266 21.6314C24.6463 21.7117 24.5436 21.7658 24.432 21.7866C24.3203 21.8074 24.205 21.794 24.1012 21.748C23.9974 21.7021 23.9099 21.6258 23.8502 21.5292C23.7906 21.4326 23.7615 21.3202 23.7669 21.2067C23.765 20.9854 23.6977 20.7697 23.5735 20.5865C23.4493 20.4033 23.2738 20.2608 23.069 20.177C22.8642 20.0932 22.6392 20.0717 22.4222 20.1153C22.2053 20.1589 22.006 20.2655 21.8494 20.4219C21.6928 20.5783 21.5859 20.7775 21.5421 20.9944C21.4983 21.2113 21.5196 21.4364 21.6032 21.6413C21.6868 21.8462 21.829 22.0218 22.0121 22.1462C22.1951 22.2706 22.4108 22.3381 22.6321 22.3403C22.7456 22.3346 22.8582 22.3635 22.955 22.423C23.0519 22.4825 23.1284 22.57 23.1745 22.6739C23.2206 22.7778 23.2342 22.8932 23.2134 23.005C23.1926 23.1167 23.1385 23.2195 23.0581 23.2999L20.483 25.875L22.7565 28.1484C22.8368 28.2287 22.8909 28.3314 22.9117 28.443C22.9325 28.5546 22.919 28.6699 22.8731 28.7738C22.8271 28.8776 22.7508 28.9651 22.6542 29.0248C22.5576 29.0844 22.4452 29.1135 22.3318 29.108C22.1105 29.11 21.8947 29.1773 21.7115 29.3015C21.5283 29.4256 21.3859 29.6011 21.3021 29.806C21.2182 30.0108 21.1968 30.2358 21.2403 30.4528C21.2839 30.6697 21.3906 30.869 21.547 31.0256C21.7034 31.1821 21.9025 31.289 22.1195 31.3328C22.3364 31.3767 22.5614 31.3554 22.7663 31.2718C22.9712 31.1882 23.1469 31.046 23.2713 30.8629C23.3956 30.6799 23.4631 30.4642 23.4654 30.2429C23.4616 30.1667 23.4732 30.0906 23.4997 30.0191C23.5262 29.9476 23.567 29.8823 23.6195 29.827C23.6721 29.7718 23.7353 29.7278 23.8053 29.6977C23.8754 29.6677 23.9508 29.6522 24.0271 29.6521H24.027ZM23.4695 30.2882L23.4696 30.2887L23.4695 30.2882ZM23.4691 30.2854L23.4695 30.2879L23.4691 30.2854ZM23.4691 30.2846L23.4691 30.2851L23.4691 30.2846ZM22.292 29.1047L22.2924 29.1047L22.292 29.1047ZM22.2906 29.1045L22.2916 29.1046L22.2906 29.1045ZM22.5867 22.3445L22.5856 22.3446L22.5867 22.3445ZM22.5879 22.3443L22.5868 22.3444L22.5879 22.3443ZM22.5902 22.344L22.588 22.3443L22.5902 22.344ZM22.5913 22.3439L22.5903 22.344L22.5913 22.3439Z" fill="#517EA1"/>
<path d="M32.0625 1.125H1.6875C1.61363 1.12498 1.54047 1.13952 1.47222 1.16778C1.40396 1.19604 1.34195 1.23747 1.28971 1.28971C1.23747 1.34195 1.19604 1.40396 1.16778 1.47222C1.13952 1.54047 1.12498 1.61363 1.125 1.6875V32.0625C1.12498 32.1364 1.13952 32.2095 1.16778 32.2778C1.19604 32.346 1.23747 32.4081 1.28971 32.4603C1.34195 32.5125 1.40396 32.554 1.47222 32.5822C1.54047 32.6105 1.61363 32.625 1.6875 32.625H19.6875V31.5H12.375V28.2572C12.3749 28.1486 12.3433 28.0424 12.2842 27.9513C12.2251 27.8602 12.1409 27.7882 12.0417 27.7439C11.9426 27.6996 11.8327 27.6849 11.7254 27.7017C11.6182 27.7184 11.518 27.7658 11.437 27.8381C11.2752 27.983 11.0749 28.078 10.8603 28.1115C10.6456 28.145 10.4259 28.1157 10.2276 28.0271C10.0292 27.9385 9.86083 27.7943 9.74264 27.6121C9.62446 27.4298 9.56157 27.2172 9.56157 27C9.56157 26.7828 9.62446 26.5702 9.74264 26.3879C9.86083 26.2057 10.0292 26.0615 10.2276 25.9729C10.4259 25.8843 10.6456 25.8549 10.8603 25.8885C11.0749 25.922 11.2752 26.017 11.437 26.1619C11.518 26.2342 11.6182 26.2816 11.7254 26.2983C11.8327 26.3151 11.9426 26.3004 12.0417 26.2561C12.1409 26.2118 12.2251 26.1398 12.2842 26.0487C12.3433 25.9576 12.3749 25.8514 12.375 25.7428V22.5H15.6178C15.7264 22.4999 15.8326 22.4683 15.9237 22.4092C16.0148 22.3501 16.0868 22.2659 16.1311 22.1667C16.1754 22.0676 16.1901 21.9577 16.1733 21.8504C16.1566 21.7432 16.1092 21.643 16.0369 21.562C15.892 21.4002 15.797 21.1999 15.7635 20.9853C15.73 20.7706 15.7593 20.5509 15.8479 20.3526C15.9365 20.1542 16.0807 19.9858 16.2629 19.8676C16.4452 19.7495 16.6578 19.6866 16.875 19.6866C17.0922 19.6866 17.3048 19.7495 17.4871 19.8676C17.6693 19.9858 17.8135 20.1542 17.9021 20.3526C17.9907 20.5509 18.0201 20.7706 17.9865 20.9853C17.953 21.1999 17.858 21.4002 17.7131 21.562C17.6408 21.643 17.5934 21.7432 17.5767 21.8504C17.5599 21.9577 17.5746 22.0676 17.6189 22.1667C17.6632 22.2659 17.7352 22.3501 17.8263 22.4092C17.9174 22.4683 18.0236 22.4999 18.1322 22.5H19.6875V21.375H19.054C19.101 21.1912 19.1248 21.0022 19.125 20.8125C19.125 20.2158 18.8879 19.6435 18.466 19.2215C18.044 18.7996 17.4717 18.5625 16.875 18.5625C16.2783 18.5625 15.706 18.7996 15.284 19.2215C14.8621 19.6435 14.625 20.2158 14.625 20.8125C14.6252 21.0022 14.649 21.1912 14.696 21.375H12.375V19.054C12.5588 19.101 12.7478 19.1248 12.9375 19.125C13.5342 19.125 14.1065 18.8879 14.5285 18.466C14.9504 18.044 15.1875 17.4717 15.1875 16.875C15.1875 16.2783 14.9504 15.706 14.5285 15.284C14.1065 14.8621 13.5342 14.625 12.9375 14.625C12.7478 14.6252 12.5588 14.649 12.375 14.696V12.375H15.6178C15.7264 12.3749 15.8326 12.3433 15.9237 12.2842C16.0148 12.2251 16.0868 12.1409 16.1311 12.0417C16.1754 11.9426 16.1901 11.8327 16.1733 11.7254C16.1566 11.6182 16.1092 11.518 16.0369 11.437C15.892 11.2752 15.797 11.0749 15.7635 10.8603C15.73 10.6456 15.7593 10.4259 15.8479 10.2276C15.9365 10.0292 16.0807 9.86083 16.2629 9.74264C16.4452 9.62446 16.6578 9.56157 16.875 9.56157C17.0922 9.56157 17.3048 9.62446 17.4871 9.74264C17.6693 9.86083 17.8135 10.0292 17.9021 10.2276C17.9907 10.4259 18.0201 10.6456 17.9865 10.8603C17.953 11.0749 17.858 11.2752 17.7131 11.437C17.6408 11.518 17.5934 11.6182 17.5767 11.7254C17.5599 11.8327 17.5746 11.9426 17.6189 12.0417C17.6632 12.1409 17.7352 12.2251 17.8263 12.2842C17.9174 12.3433 18.0236 12.3749 18.1322 12.375H21.375V15.6178C21.3751 15.7264 21.4067 15.8326 21.4658 15.9237C21.5249 16.0148 21.6091 16.0868 21.7083 16.1311C21.8074 16.1754 21.9172 16.19 22.0245 16.1733C22.1318 16.1566 22.232 16.1092 22.313 16.0369C22.5272 15.8452 22.8066 15.7429 23.0939 15.7508C23.3813 15.7588 23.6546 15.8764 23.8579 16.0796C24.0612 16.2828 24.179 16.5561 24.1871 16.8434C24.1951 17.1307 24.0929 17.4102 23.9013 17.6245L24.7387 18.3755C25.0285 18.0518 25.2185 17.6512 25.2855 17.222C25.3526 16.7928 25.294 16.3533 25.1167 15.9567C24.9394 15.5601 24.6511 15.2233 24.2866 14.987C23.9221 14.7507 23.4969 14.6249 23.0625 14.625C22.8728 14.6252 22.6838 14.649 22.5 14.696V12.375H24.821C24.774 12.5588 24.7502 12.7478 24.75 12.9375C24.75 13.5342 24.9871 14.1065 25.409 14.5285C25.831 14.9504 26.4033 15.1875 27 15.1875C27.5967 15.1875 28.169 14.9504 28.591 14.5285C29.0129 14.1065 29.25 13.5342 29.25 12.9375C29.2498 12.7478 29.226 12.5588 29.179 12.375H31.5V20.8125H32.625V1.6875C32.625 1.61363 32.6105 1.54047 32.5822 1.47222C32.554 1.40396 32.5125 1.34195 32.4603 1.28971C32.4081 1.23747 32.346 1.19604 32.2778 1.16778C32.2095 1.13952 32.1364 1.12498 32.0625 1.125ZM11.25 24.821C11.0662 24.774 10.8772 24.7502 10.6875 24.75C10.0908 24.75 9.51847 24.9871 9.09651 25.409C8.67455 25.831 8.4375 26.4033 8.4375 27C8.4375 27.5967 8.67455 28.169 9.09651 28.591C9.51847 29.0129 10.0908 29.25 10.6875 29.25C10.8772 29.2498 11.0662 29.226 11.25 29.179V31.5H2.25V22.5H4.57102C4.52403 22.6838 4.50017 22.8728 4.5 23.0625C4.5 23.6592 4.73705 24.2315 5.15901 24.6535C5.58097 25.0754 6.15326 25.3125 6.75 25.3125C7.34674 25.3125 7.91903 25.0754 8.34099 24.6535C8.76295 24.2315 9 23.6592 9 23.0625C8.99983 22.8728 8.97597 22.6838 8.92898 22.5H11.25V24.821ZM12.9375 15.75C13.1199 15.7498 13.2996 15.7941 13.4612 15.8788C13.6227 15.9636 13.7612 16.0864 13.8647 16.2366C13.9683 16.3868 14.0337 16.5599 14.0554 16.741C14.0771 16.9222 14.0545 17.1059 13.9894 17.2763C13.9244 17.4467 13.8188 17.5987 13.6819 17.7193C13.545 17.8399 13.3808 17.9253 13.2036 17.9683C13.0263 18.0113 12.8412 18.0105 12.6643 17.9661C12.4873 17.9216 12.3239 17.8348 12.188 17.7131C12.107 17.6408 12.0068 17.5934 11.8996 17.5767C11.7923 17.5599 11.6824 17.5746 11.5833 17.6189C11.4841 17.6632 11.3999 17.7352 11.3408 17.8263C11.2817 17.9174 11.2501 18.0236 11.25 18.1322V21.375H8.00718C7.8986 21.3751 7.79237 21.4067 7.7013 21.4658C7.61023 21.5249 7.53821 21.6091 7.49391 21.7083C7.44962 21.8074 7.43494 21.9172 7.45166 22.0245C7.46837 22.1318 7.51576 22.232 7.58812 22.313C7.73302 22.4748 7.82797 22.6751 7.86151 22.8897C7.89505 23.1044 7.86573 23.3241 7.7771 23.5224C7.68847 23.7207 7.54432 23.8892 7.36206 24.0073C7.1798 24.1255 6.96722 24.1884 6.75 24.1884C6.53277 24.1884 6.32019 24.1255 6.13793 24.0073C5.95567 23.8892 5.81152 23.7207 5.72289 23.5224C5.63427 23.3241 5.60495 23.1044 5.63848 22.8897C5.67202 22.6751 5.76697 22.4748 5.91188 22.313C5.98423 22.232 6.03162 22.1318 6.04833 22.0245C6.06505 21.9172 6.05038 21.8074 6.00608 21.7083C5.96179 21.6091 5.88977 21.5249 5.7987 21.4658C5.70763 21.4067 5.6014 21.3751 5.49282 21.375H2.25V12.375H5.49282C5.60141 12.3749 5.70764 12.3433 5.79871 12.2842C5.88978 12.2251 5.9618 12.1409 6.00609 12.0417C6.05039 11.9426 6.06506 11.8327 6.04834 11.7254C6.03163 11.6182 5.98424 11.518 5.91188 11.437C5.76698 11.2752 5.67203 11.0749 5.63849 10.8603C5.60495 10.6456 5.63427 10.4259 5.7229 10.2276C5.81153 10.0292 5.95568 9.86083 6.13794 9.74264C6.3202 9.62446 6.53278 9.56157 6.75 9.56157C6.96723 9.56157 7.17981 9.62446 7.36207 9.74264C7.54433 9.86083 7.68848 10.0292 7.77711 10.2276C7.86573 10.4259 7.89505 10.6456 7.86152 10.8603C7.82798 11.0749 7.73303 11.2752 7.58812 11.437C7.51577 11.518 7.46838 11.6182 7.45166 11.7254C7.43495 11.8327 7.44962 11.9426 7.49391 12.0417C7.5382 12.1409 7.61023 12.2251 7.7013 12.2842C7.79237 12.3433 7.89859 12.3749 8.00718 12.375H11.25V15.6178C11.2501 15.7264 11.2817 15.8326 11.3408 15.9237C11.3999 16.0148 11.4841 16.0868 11.5833 16.1311C11.6824 16.1754 11.7923 16.1901 11.8996 16.1733C12.0068 16.1566 12.107 16.1092 12.188 16.0369C12.3938 15.852 12.6608 15.7498 12.9375 15.75ZM12.188 7.58812C12.107 7.51577 12.0068 7.46838 11.8996 7.45166C11.7923 7.43494 11.6824 7.44962 11.5833 7.49391C11.4841 7.5382 11.3999 7.61023 11.3408 7.70129C11.2817 7.79236 11.2501 7.89859 11.25 8.00718V11.25H8.92898C8.97597 11.0662 8.99982 10.8772 9 10.6875C9 10.0908 8.76295 9.51847 8.34099 9.09651C7.91903 8.67455 7.34674 8.4375 6.75 8.4375C6.15326 8.4375 5.58097 8.67455 5.15901 9.09651C4.73705 9.51847 4.5 10.0908 4.5 10.6875C4.50018 10.8772 4.52403 11.0662 4.57102 11.25H2.25V2.25H11.25V5.49282C11.2501 5.60141 11.2817 5.70764 11.3408 5.79871C11.3999 5.88978 11.4841 5.9618 11.5833 6.00609C11.6824 6.05039 11.7923 6.06506 11.8996 6.04834C12.0068 6.03163 12.107 5.98424 12.188 5.91188C12.3498 5.76698 12.5501 5.67203 12.7647 5.63849C12.9794 5.60495 13.1991 5.63427 13.3974 5.7229C13.5958 5.81153 13.7642 5.95568 13.8824 6.13794C14.0005 6.3202 14.0634 6.53278 14.0634 6.75C14.0634 6.96723 14.0005 7.17981 13.8824 7.36207C13.7642 7.54433 13.5958 7.68848 13.3974 7.77711C13.1991 7.86573 12.9794 7.89505 12.7647 7.86152C12.5501 7.82798 12.3498 7.73303 12.188 7.58812V7.58812ZM22.313 7.58812C22.232 7.51577 22.1318 7.46838 22.0245 7.45167C21.9172 7.43495 21.8074 7.44963 21.7083 7.49392C21.6091 7.53821 21.5249 7.61023 21.4658 7.7013C21.4067 7.79237 21.3751 7.8986 21.375 8.00718V11.25H19.054C19.101 11.0662 19.1248 10.8772 19.125 10.6875C19.125 10.0908 18.8879 9.51847 18.466 9.09651C18.044 8.67455 17.4717 8.4375 16.875 8.4375C16.2783 8.4375 15.706 8.67455 15.284 9.09651C14.8621 9.51847 14.625 10.0908 14.625 10.6875C14.6252 10.8772 14.649 11.0662 14.696 11.25H12.375V8.92898C12.5588 8.97597 12.7478 8.99982 12.9375 9C13.5342 9 14.1065 8.76295 14.5285 8.34099C14.9504 7.91903 15.1875 7.34674 15.1875 6.75C15.1875 6.15326 14.9504 5.58097 14.5285 5.15901C14.1065 4.73705 13.5342 4.5 12.9375 4.5C12.7478 4.50018 12.5588 4.52403 12.375 4.57102V2.25H21.375V5.49282C21.3751 5.6014 21.4067 5.70763 21.4658 5.7987C21.5249 5.88977 21.6091 5.96179 21.7083 6.00608C21.8074 6.05037 21.9172 6.06505 22.0245 6.04834C22.1318 6.03162 22.232 5.98423 22.313 5.91188C22.4748 5.76698 22.6751 5.67203 22.8897 5.63849C23.1044 5.60495 23.3241 5.63427 23.5224 5.7229C23.7207 5.81153 23.8892 5.95568 24.0073 6.13794C24.1255 6.3202 24.1884 6.53278 24.1884 6.75C24.1884 6.96723 24.1255 7.17981 24.0073 7.36207C23.8892 7.54433 23.7207 7.68848 23.5224 7.77711C23.3241 7.86573 23.1044 7.89505 22.8897 7.86152C22.6751 7.82798 22.4748 7.73303 22.313 7.58812V7.58812ZM31.5 11.25H28.2572C28.1486 11.2501 28.0424 11.2817 27.9513 11.3408C27.8602 11.3999 27.7882 11.4841 27.7439 11.5833C27.6996 11.6824 27.6849 11.7922 27.7017 11.8995C27.7184 12.0068 27.7658 12.107 27.8381 12.188C27.983 12.3498 28.078 12.5501 28.1115 12.7647C28.145 12.9794 28.1157 13.1991 28.0271 13.3974C27.9385 13.5957 27.7943 13.7642 27.6121 13.8823C27.4298 14.0005 27.2172 14.0634 27 14.0634C26.7828 14.0634 26.5702 14.0005 26.3879 13.8823C26.2057 13.7642 26.0615 13.5957 25.9729 13.3974C25.8843 13.1991 25.8549 12.9794 25.8885 12.7647C25.922 12.5501 26.017 12.3498 26.1619 12.188C26.2342 12.107 26.2816 12.0068 26.2983 11.8995C26.3151 11.7922 26.3004 11.6824 26.2561 11.5833C26.2118 11.4841 26.1398 11.3999 26.0487 11.3408C25.9576 11.2817 25.8514 11.2501 25.7428 11.25H22.5V8.92898C22.6838 8.97597 22.8728 8.99982 23.0625 9C23.6592 9 24.2315 8.76295 24.6535 8.34099C25.0754 7.91903 25.3125 7.34674 25.3125 6.75C25.3125 6.15326 25.0754 5.58097 24.6535 5.15901C24.2315 4.73705 23.6592 4.5 23.0625 4.5C22.8728 4.50018 22.6838 4.52403 22.5 4.57102V2.25H31.5V11.25Z" fill="#517EA1"/>
</svg>
