<svg width="35" height="35" viewBox="0 0 35 35" fill="none" xmlns="http://www.w3.org/2000/svg">
<g clip-path="url(#clip0)">
<path d="M29.7386 11.6958C29.7383 11.6958 29.7378 11.6958 29.7375 11.6958H0.501111C0.224682 11.6955 0.00029265 11.9193 2.86118e-07 12.1957C2.86118e-07 12.1961 2.86118e-07 12.1965 2.86118e-07 12.1969V26.2304C-0.000292077 26.5068 0.223512 26.7312 0.499942 26.7315C0.500307 26.7315 0.500746 26.7315 0.501111 26.7315H20.3818C20.6585 26.7315 20.8829 26.5071 20.8829 26.2304C20.8829 25.9536 20.6585 25.7292 20.3818 25.7292H1.00222V12.698H29.2363V13.9511C29.2361 14.2275 29.4599 14.4519 29.7363 14.4522C29.7367 14.4522 29.7371 14.4522 29.7375 14.4522C30.0139 14.4525 30.2383 14.2287 30.2386 13.9523C30.2386 13.9519 30.2386 13.9515 30.2386 13.9511V12.1969C30.2389 11.9205 30.0151 11.6962 29.7386 11.6958Z" fill="#517EA1"/>
<path d="M26.3389 9.3694L2.94979 4.10685C2.81999 4.07784 2.68396 4.10137 2.57148 4.17234C2.45914 4.2439 2.37969 4.35697 2.35045 4.48693L1.181 9.74947C1.12091 10.0198 1.29136 10.2876 1.56165 10.3476C1.83194 10.4077 2.09975 10.2373 2.15983 9.96699L3.21994 5.19503L26.119 10.3471C26.1553 10.3555 26.1923 10.3596 26.2295 10.3593C26.5063 10.3588 26.7302 10.1341 26.7298 9.85735C26.7293 9.62339 26.5671 9.42092 26.3389 9.3694Z" fill="#517EA1"/>
<path d="M23.4985 6.46957L9.46506 0.622303C9.22116 0.520633 8.94012 0.62508 8.82186 0.861456L7.65241 3.20036C7.52033 3.44463 7.61126 3.74979 7.8556 3.88186C8.09987 4.01394 8.40503 3.92301 8.5371 3.67867C8.54229 3.6691 8.54719 3.6593 8.55172 3.64936V3.65053L9.51126 1.73029L23.1114 7.39687C23.3675 7.50373 23.6618 7.38284 23.7687 7.12673C23.8755 6.87077 23.7546 6.5765 23.4985 6.46957Z" fill="#517EA1"/>
<path d="M23.853 14.0347H19.212C18.9353 14.0347 18.7109 14.2591 18.7109 14.5358C18.7109 14.8125 18.9353 15.0369 19.212 15.0369H23.853C24.1297 15.0369 24.3541 14.8125 24.3541 14.5358C24.3541 14.2591 24.1297 14.0347 23.853 14.0347Z" fill="#517EA1"/>
<path d="M14.5343 14.0684C11.6924 14.0684 9.38867 16.3721 9.38867 19.214C9.3916 22.0546 11.6937 24.3566 14.5343 24.3595C17.3761 24.3595 19.6799 22.0558 19.6799 19.214C19.6799 16.3721 17.3761 14.0684 14.5343 14.0684ZM14.5343 23.424C12.2091 23.424 10.3242 21.5391 10.3242 19.214C10.3268 16.8899 12.2102 15.0065 14.5343 15.0039C16.8594 15.0039 18.7443 16.8888 18.7443 19.214C18.7443 21.5391 16.8594 23.424 14.5343 23.424Z" fill="#517EA1"/>
<path d="M28.5677 15.7051C25.4687 15.7051 22.1357 16.4372 22.1357 18.044V32.0774C22.1357 33.6843 25.4687 34.4163 28.5677 34.4163C31.6668 34.4163 34.9997 33.6843 34.9997 32.0774V18.044C34.9997 16.4372 31.6668 15.7051 28.5677 15.7051ZM33.8303 32.0687C33.742 32.3932 31.9884 33.2469 28.5677 33.2469C25.1471 33.2469 23.3935 32.3932 23.3052 32.0774V31.1582C24.5495 31.7851 26.6048 32.0774 28.5677 32.0774C30.5307 32.0774 32.5866 31.7821 33.8303 31.1577V32.0687ZM33.8303 29.7298C33.742 30.0543 31.9884 30.908 28.5677 30.908C25.1471 30.908 23.3935 30.0543 23.3052 29.7385V28.8193C24.5495 29.4462 26.6048 29.7385 28.5677 29.7385C30.5307 29.7385 32.5866 29.4432 33.8303 28.8188V29.7298ZM33.8303 27.3908C33.742 27.7154 31.9884 28.5691 28.5677 28.5691C25.1471 28.5691 23.3935 27.7154 23.3052 27.3996V26.4804C24.5495 27.1073 26.6048 27.3996 28.5677 27.3996C30.5307 27.3996 32.5866 27.1043 33.8303 26.4798V27.3908ZM33.8303 25.0519C33.742 25.3765 31.9884 26.2302 28.5677 26.2302C25.1471 26.2302 23.3935 25.3765 23.3052 25.0607V24.1415C24.5495 24.7683 26.6048 25.0607 28.5677 25.0607C30.5307 25.0607 32.5866 24.7654 33.8303 24.1409V25.0519ZM33.8303 22.713C33.742 23.0376 31.9884 23.8913 28.5677 23.8913C25.1471 23.8913 23.3935 23.0376 23.3052 22.7218V21.8026C24.5495 22.4265 26.6048 22.7218 28.5677 22.7218C30.5307 22.7218 32.5866 22.4265 33.8303 21.802V22.713ZM33.8303 20.3741C33.742 20.6986 31.9884 21.5523 28.5677 21.5523C25.1471 21.5523 23.3935 20.6986 23.3052 20.3829V19.4637C24.5495 20.0876 26.6048 20.3829 28.5677 20.3829C30.5307 20.3829 32.5866 20.0876 33.8303 19.4631V20.3741ZM28.5677 19.2134C25.1523 19.2134 23.3993 18.3621 23.3052 18.0545V18.051C23.3993 17.7253 25.1523 16.8745 28.5677 16.8745C31.9592 16.8745 33.7133 17.713 33.8303 18.044C33.7133 18.3749 31.9592 19.2134 28.5677 19.2134Z" fill="#517EA1"/>
<path d="M9.85631 23.3897H5.43636L3.3407 21.0976V17.2969L5.65505 15.0369H9.85631C10.133 15.0369 10.3574 14.8125 10.3574 14.5358C10.3574 14.2591 10.133 14.0347 9.85631 14.0347H5.45156C5.32058 14.0344 5.19465 14.0854 5.10073 14.1768L2.48875 16.7244C2.39117 16.8384 2.33767 16.9837 2.33789 17.1337V21.2923C2.33789 21.4174 2.3846 21.5379 2.46887 21.6303L4.84462 24.2288C4.93956 24.3327 5.0739 24.392 5.21475 24.3919H9.85631C10.133 24.3919 10.3574 24.1676 10.3574 23.8908C10.3574 23.6141 10.1331 23.3897 9.85631 23.3897Z" fill="#517EA1"/>
<path d="M14.8268 18.6291H14.2421C14.0602 18.6291 13.9497 18.5273 13.9497 18.4829C13.9497 18.4384 14.0602 18.3367 14.2421 18.3367H15.7039C16.0268 18.3367 16.2886 18.0749 16.2886 17.752C16.2886 17.4291 16.0268 17.1672 15.7039 17.1672H15.1192C15.1192 16.8443 14.8574 16.5825 14.5345 16.5825C14.2115 16.5825 13.9497 16.8443 13.9497 17.1672V17.1936C13.3012 17.2851 12.8099 17.8256 12.7803 18.48C12.8222 19.2466 13.4751 19.8356 14.2421 19.7985H14.8268C15.0087 19.7985 15.1192 19.9003 15.1192 19.9447C15.1192 19.9891 15.0087 20.0909 14.8268 20.0909H13.365C13.0421 20.0909 12.7803 20.3527 12.7803 20.6756C12.7803 20.9985 13.0421 21.2603 13.365 21.2603H13.9497C13.9497 21.5832 14.2115 21.8451 14.5345 21.8451C14.8574 21.8451 15.1192 21.5832 15.1192 21.2603V21.234C15.7677 21.1424 16.259 20.6019 16.2886 19.9476C16.2468 19.181 15.5938 18.5919 14.8268 18.6291Z" fill="#517EA1"/>
</g>
<defs>
<clipPath id="clip0">
<rect width="35" height="35" fill="white"/>
</clipPath>
</defs>
</svg>
