<svg width="36" height="36" viewBox="0 0 36 36" fill="none" xmlns="http://www.w3.org/2000/svg">
<path d="M33.4588 18.846C32.1242 18.5685 30.3162 18.4219 28.2305 18.4219C27.3696 18.4219 26.5571 18.4473 25.8047 18.4961V1.93359C25.8047 0.867445 24.9372 0 23.8711 0H1.93359C0.813164 0 0 0.9315 0 2.21484V31.3945C0 32.1586 0.844664 33.0469 1.93359 33.0469H20.4609V33.8555C20.4609 35.0475 22.3736 35.4452 23.0022 35.5759C24.3368 35.8533 26.1447 36 28.2305 36C30.3162 36 32.1242 35.8533 33.4588 35.5759C34.0874 35.4452 36 35.0475 36 33.8555V20.5664C36 19.3743 34.0874 18.9767 33.4588 18.846ZM34.9453 27.2076C34.9344 27.2302 34.715 27.6178 33.0678 27.934C31.8177 28.174 30.145 28.3009 28.2305 28.3009C26.3159 28.3009 24.6432 28.174 23.3931 27.934C21.7055 27.61 21.5165 27.2109 21.5156 27.2109V25.1559C22.0676 25.4145 22.6915 25.5445 23.0022 25.609C24.3368 25.8865 26.1447 26.0331 28.2305 26.0331C30.3162 26.0331 32.1242 25.8865 33.4588 25.609C33.7693 25.5445 34.3934 25.4145 34.9453 25.1559V27.2076ZM13.5703 27.3164C13.279 27.3164 13.043 27.5524 13.043 27.8438V29.1797H5.02734C4.75249 29.1797 4.57031 28.9545 4.57031 28.8633V23.625H13.043V25.3828C13.043 25.6741 13.279 25.9102 13.5703 25.9102C13.8616 25.9102 14.0977 25.6741 14.0977 25.3828V23.625H20.4609V29.1797H14.0977V27.8438C14.0977 27.5524 13.8616 27.3164 13.5703 27.3164ZM22.5703 18.9423C21.7617 19.1406 20.4609 19.5832 20.4609 20.5664V22.5703H14.0977V17.0156H22.1133C22.3653 17.0156 22.5703 17.2207 22.5703 17.4727V18.9423ZM13.043 22.5703H4.57031V17.6133C4.57031 17.2558 4.75397 17.0156 5.02734 17.0156H13.043V22.5703ZM34.9453 23.8853C34.9344 23.9079 34.715 24.2955 33.0678 24.6118C31.8177 24.8517 30.145 24.9786 28.2305 24.9786C26.3159 24.9786 24.6432 24.8517 23.3931 24.6118C21.7055 24.2878 21.5165 23.8887 21.5156 23.8887V21.8336C22.0676 22.0922 22.6915 22.2222 23.0022 22.2867C24.3368 22.5643 26.1447 22.7109 28.2305 22.7109C30.3162 22.7109 32.1242 22.5643 33.4588 22.2868C33.7693 22.2223 34.3934 22.0923 34.9453 21.8337V23.8853ZM33.0678 19.8434C34.6584 20.1488 34.9178 20.5208 34.9436 20.5664C34.9178 20.612 34.6584 20.9841 33.0678 21.2894C31.8177 21.5294 30.145 21.6562 28.2305 21.6562C26.3159 21.6562 24.6432 21.5294 23.3931 21.2894C21.8025 20.9841 21.5432 20.612 21.5174 20.5664C21.5432 20.5208 21.8025 20.1488 23.3931 19.8434C24.6432 19.6034 26.3159 19.4766 28.2305 19.4766C30.145 19.4766 31.8177 19.6034 33.0678 19.8434ZM1.93359 31.9922C1.4258 31.9922 1.05469 31.5728 1.05469 31.3945V14.2031H18.4219C18.7132 14.2031 18.9492 13.9671 18.9492 13.6758C18.9492 13.3845 18.7132 13.1484 18.4219 13.1484H1.05469V2.21484C1.05469 1.5101 1.39964 1.05469 1.93359 1.05469H23.8711C24.3558 1.05469 24.75 1.44893 24.75 1.93359V13.1484H20.8828C20.5915 13.1484 20.3555 13.3845 20.3555 13.6758C20.3555 13.9671 20.5915 14.2031 20.8828 14.2031H24.75V18.5842C24.3513 18.6257 23.9758 18.6751 23.625 18.732V17.4727C23.625 16.6391 22.9468 15.9609 22.1133 15.9609H5.02734C4.16552 15.9609 3.51562 16.6713 3.51562 17.6133V28.8633C3.51562 29.5937 4.22205 30.2344 5.02734 30.2344H20.4609V31.9922H1.93359ZM33.0678 34.5785C31.8177 34.8185 30.145 34.9453 28.2305 34.9453C26.3159 34.9453 24.6432 34.8185 23.3931 34.5785C21.7055 34.2546 21.5165 33.8555 21.5156 33.8555V31.8004C22.0676 32.059 22.6915 32.189 23.0022 32.2535C24.3368 32.531 26.1447 32.6777 28.2305 32.6777C29.2354 32.6777 30.1874 32.6429 31.0598 32.5741C31.3502 32.5512 31.567 32.2973 31.5442 32.007C31.5213 31.7167 31.2667 31.4998 30.9771 31.5227C30.1321 31.5892 29.208 31.623 28.2305 31.623C26.3159 31.623 24.6432 31.4961 23.3931 31.2562C21.7055 30.9323 21.5165 30.5332 21.5156 30.5332V28.4782C22.0676 28.7367 22.6915 28.8667 23.0022 28.9313C24.3368 29.2087 26.1447 29.3554 28.2305 29.3554C30.3162 29.3554 32.1242 29.2087 33.4588 28.9313C33.7693 28.8667 34.3934 28.7367 34.9453 28.4782V30.5298C34.9345 30.5523 34.7403 30.8955 33.3445 31.1996C33.06 31.2616 32.8795 31.5426 32.9415 31.8272C33.0023 32.1138 33.2918 32.2929 33.5691 32.2301C33.8576 32.1673 34.4289 32.0424 34.9453 31.8009V33.852C34.9344 33.8747 34.715 34.2622 33.0678 34.5785Z" fill="#517EA1"/>
<path d="M23.6953 9.87891V4.32422C23.6953 3.49066 23.0171 2.8125 22.1836 2.8125H10.5469C10.2556 2.8125 10.0195 3.04854 10.0195 3.33984C10.0195 3.63115 10.2556 3.86719 10.5469 3.86719H22.1836C22.4356 3.86719 22.6406 4.07222 22.6406 4.32422V9.87891C22.6406 10.1309 22.4356 10.3359 22.1836 10.3359H5.02734C4.77534 10.3359 4.57031 10.1309 4.57031 9.87891V4.32422C4.57031 4.07222 4.77534 3.86719 5.02734 3.86719H8.08594C8.37724 3.86719 8.61328 3.63115 8.61328 3.33984C8.61328 3.04854 8.37724 2.8125 8.08594 2.8125H5.02734C4.19379 2.8125 3.51562 3.49066 3.51562 4.32422V9.87891C3.51562 10.7125 4.19379 11.3906 5.02734 11.3906H22.1836C23.0171 11.3906 23.6953 10.7125 23.6953 9.87891Z" fill="#517EA1"/>
<path d="M11.0742 25.875H7.27734C6.98604 25.875 6.75 26.111 6.75 26.4023C6.75 26.6936 6.98604 26.9297 7.27734 26.9297H11.0742C11.3655 26.9297 11.6016 26.6936 11.6016 26.4023C11.6016 26.111 11.3655 25.875 11.0742 25.875Z" fill="#517EA1"/>
<path d="M7.62891 20.3203H8.64844V21.3398C8.64844 21.6311 8.88448 21.8672 9.17578 21.8672C9.46709 21.8672 9.70312 21.6311 9.70312 21.3398V20.3203H10.7227C11.014 20.3203 11.25 20.0843 11.25 19.793C11.25 19.5017 11.014 19.2656 10.7227 19.2656H9.70312V18.2461C9.70312 17.9548 9.46709 17.7188 9.17578 17.7188C8.88448 17.7188 8.64844 17.9548 8.64844 18.2461V19.2656H7.62891C7.3376 19.2656 7.10156 19.5017 7.10156 19.793C7.10156 20.0843 7.3376 20.3203 7.62891 20.3203Z" fill="#517EA1"/>
<path d="M19.4668 18.3263C19.2608 18.1204 18.9269 18.1204 18.721 18.3263L18.0001 19.0472L17.2792 18.3263C17.0732 18.1204 16.7393 18.1204 16.5334 18.3263C16.3274 18.5323 16.3274 18.8661 16.5334 19.0721L17.2543 19.793L16.5334 20.5139C16.3274 20.7199 16.3274 21.0538 16.5334 21.2597C16.7394 21.4656 17.0732 21.4656 17.2792 21.2597L18.0001 20.5388L18.721 21.2597C18.927 21.4656 19.2608 21.4656 19.4668 21.2597C19.6727 21.0537 19.6727 20.7199 19.4668 20.5139L18.7459 19.793L19.4668 19.0721C19.6727 18.8661 19.6727 18.5322 19.4668 18.3263Z" fill="#517EA1"/>
<path d="M16.8144 28.1352C16.9494 28.1352 17.0844 28.0837 17.1874 27.9808L19.578 25.5902C19.7839 25.3841 19.7839 25.0503 19.578 24.8443C19.372 24.6385 19.0381 24.6385 18.8322 24.8443L16.4416 27.235C16.2356 27.441 16.2356 27.7748 16.4416 27.9808C16.5446 28.0837 16.6796 28.1352 16.8144 28.1352Z" fill="#517EA1"/>
<path d="M16.9805 25.5938C17.2717 25.5938 17.5078 25.3577 17.5078 25.0664C17.5078 24.7752 17.2717 24.5391 16.9805 24.5391C16.6892 24.5391 16.4531 24.7752 16.4531 25.0664C16.4531 25.3577 16.6892 25.5938 16.9805 25.5938Z" fill="#517EA1"/>
<path d="M19.0898 28.2656C19.3811 28.2656 19.6172 28.0295 19.6172 27.7383C19.6172 27.447 19.3811 27.2109 19.0898 27.2109C18.7986 27.2109 18.5625 27.447 18.5625 27.7383C18.5625 28.0295 18.7986 28.2656 19.0898 28.2656Z" fill="#517EA1"/>
<path d="M20.4258 9.35156C21.1042 9.35156 21.6562 8.79954 21.6562 8.12109V6.08203C21.6562 5.40359 21.1042 4.85156 20.4258 4.85156H19.4414C18.763 4.85156 18.2109 5.40359 18.2109 6.08203V8.12109C18.2109 8.79954 18.763 9.35156 19.4414 9.35156H20.4258ZM19.2656 8.12109V6.08203C19.2656 5.98507 19.3444 5.90625 19.4414 5.90625H20.4258C20.5227 5.90625 20.6016 5.98507 20.6016 6.08203V8.12109C20.6016 8.21805 20.5227 8.29688 20.4258 8.29688H19.4414C19.3444 8.29688 19.2656 8.21805 19.2656 8.12109Z" fill="#517EA1"/>
</svg>
