<svg width="79" height="79" viewBox="0 0 79 79" fill="none" xmlns="http://www.w3.org/2000/svg">
<g clip-path="url(#clip0)">
<path d="M4.96906 8.66162C4.28645 8.66162 3.72852 8.10986 3.72852 7.42725C3.72852 6.74464 4.27411 6.19287 4.95548 6.19287H4.96906C5.65044 6.19287 6.20344 6.74464 6.20344 7.42725C6.20344 8.10986 5.65044 8.66162 4.96906 8.66162Z" fill="#517EA1"/>
<path d="M8.67219 8.66162C7.98958 8.66162 7.43164 8.10986 7.43164 7.42725C7.43164 6.74464 7.97723 6.19287 8.65861 6.19287H8.67219C9.35356 6.19287 9.90656 6.74464 9.90656 7.42725C9.90656 8.10986 9.35356 8.66162 8.67219 8.66162Z" fill="#517EA1"/>
<path d="M12.3753 8.66162C11.6927 8.66162 11.1348 8.10986 11.1348 7.42725C11.1348 6.74464 11.6804 6.19287 12.3617 6.19287H12.3753C13.0567 6.19287 13.6097 6.74464 13.6097 7.42725C13.6097 8.10986 13.0567 8.66162 12.3753 8.66162Z" fill="#517EA1"/>
<path d="M77.7705 75.2759H1.23926C0.556648 75.2759 0.00488281 74.7241 0.00488281 74.0415V9.896C0.00488281 9.21339 0.556648 8.66162 1.23926 8.66162H77.7705C78.4531 8.66162 79.0049 9.21339 79.0049 9.896V74.0428C79.0049 74.7241 78.4531 75.2759 77.7705 75.2759ZM2.47363 72.8071H76.5361V11.1304H2.47363V72.8071Z" fill="#517EA1"/>
<path d="M1.22949 8.66162C0.546883 8.66162 -0.00488281 8.10985 -0.00488281 7.42725C-0.00488281 5.38559 1.65659 3.72412 3.69824 3.72412C4.38085 3.72412 4.93262 4.27589 4.93262 4.9585C4.93262 5.64111 4.38085 6.19287 3.69824 6.19287C3.01687 6.19287 2.46387 6.74587 2.46387 7.42725C2.46387 8.10862 1.9121 8.66162 1.22949 8.66162Z" fill="#517EA1"/>
<path d="M1.22949 11.1304C0.546883 11.1304 -0.00488281 10.5786 -0.00488281 9.896V7.42725C-0.00488281 6.74464 0.546883 6.19287 1.22949 6.19287C1.9121 6.19287 2.46387 6.74464 2.46387 7.42725V9.896C2.46387 10.5774 1.9121 11.1304 1.22949 11.1304Z" fill="#517EA1"/>
<path d="M77.7607 8.66162C77.0781 8.66162 76.5264 8.10985 76.5264 7.42725C76.5264 6.74587 75.9734 6.19287 75.292 6.19287C74.6094 6.19287 74.0576 5.64111 74.0576 4.9585C74.0576 4.27589 74.6094 3.72412 75.292 3.72412C77.3336 3.72412 78.9951 5.38559 78.9951 7.42725C78.9951 8.10862 78.4434 8.66162 77.7607 8.66162Z" fill="#517EA1"/>
<path d="M77.7607 11.1304C77.0781 11.1304 76.5264 10.5786 76.5264 9.896V7.42725C76.5264 6.74464 77.0781 6.19287 77.7607 6.19287C78.4434 6.19287 78.9951 6.74464 78.9951 7.42725V9.896C78.9951 10.5774 78.4434 11.1304 77.7607 11.1304Z" fill="#517EA1"/>
<path d="M75.292 6.19287H3.69824C3.01563 6.19287 2.46387 5.64111 2.46387 4.9585C2.46387 4.27589 3.01563 3.72412 3.69824 3.72412H75.292C75.9746 3.72412 76.5264 4.27589 76.5264 4.9585C76.5264 5.64111 75.9746 6.19287 75.292 6.19287Z" fill="#517EA1"/>
<path d="M23.4724 66.6575H7.43164C6.74903 66.6575 6.19727 66.1057 6.19727 65.4231C6.19727 64.7405 6.74903 64.1887 7.43164 64.1887H23.4711C24.1537 64.1887 24.7055 64.7405 24.7055 65.4231C24.7055 66.1057 24.1537 66.6575 23.4724 66.6575Z" fill="#517EA1"/>
<path d="M71.6108 66.6575H55.5713C54.8887 66.6575 54.3369 66.1057 54.3369 65.4231C54.3369 64.7405 54.8887 64.1887 55.5713 64.1887H71.6108C72.2934 64.1887 72.8451 64.7405 72.8451 65.4231C72.8451 66.1057 72.2921 66.6575 71.6108 66.6575Z" fill="#517EA1"/>
<path d="M47.5258 66.6575H31.4863C30.8037 66.6575 30.252 66.1057 30.252 65.4231C30.252 64.7405 30.8037 64.1887 31.4863 64.1887H47.5258C48.2084 64.1887 48.7602 64.7405 48.7602 65.4231C48.7602 66.1057 48.2084 66.6575 47.5258 66.6575Z" fill="#517EA1"/>
<path d="M43.8449 70.3606H35.166C34.4834 70.3606 33.9316 69.8088 33.9316 69.1262C33.9316 68.4436 34.4834 67.8918 35.166 67.8918H43.8449C44.5275 67.8918 45.0793 68.4436 45.0793 69.1262C45.0793 69.8088 44.5263 70.3606 43.8449 70.3606Z" fill="#517EA1"/>
<path d="M67.9156 70.3606H59.2676C58.585 70.3606 58.0332 69.8088 58.0332 69.1262C58.0332 68.4436 58.585 67.8918 59.2676 67.8918H67.9156C68.5982 67.8918 69.15 68.4436 69.15 69.1262C69.15 69.8088 68.597 70.3606 67.9156 70.3606Z" fill="#517EA1"/>
<path d="M19.7742 70.3606H11.1348C10.4522 70.3606 9.90039 69.8088 9.90039 69.1262C9.90039 68.4436 10.4522 67.8918 11.1348 67.8918H19.7729C20.4555 67.8918 21.0073 68.4436 21.0073 69.1262C21.0073 69.8088 20.4555 70.3606 19.7742 70.3606Z" fill="#517EA1"/>
<path d="M72.8525 50.6033H6.19629C5.51368 50.6033 4.96191 50.0515 4.96191 49.3689V14.8521C4.96191 14.1694 5.51368 13.6177 6.19629 13.6177H72.8525C73.5352 13.6177 74.0869 14.1694 74.0869 14.8521V49.3689C74.0869 50.0515 73.5339 50.6033 72.8525 50.6033ZM7.43066 48.1345H71.6182V16.0864H7.43066V48.1345Z" fill="#517EA1"/>
<path d="M66.6658 28.4177H40.7451C40.0625 28.4177 39.5107 27.866 39.5107 27.1833C39.5107 26.5007 40.0625 25.949 40.7451 25.949H66.6658C67.3484 25.949 67.9001 26.5007 67.9001 27.1833C67.9001 27.866 67.3484 28.4177 66.6658 28.4177Z" fill="#517EA1"/>
<path d="M66.6658 24.7134H40.7451C40.0625 24.7134 39.5107 24.1616 39.5107 23.479C39.5107 22.7964 40.0625 22.2446 40.7451 22.2446H66.6658C67.3484 22.2446 67.9001 22.7964 67.9001 23.479C67.9001 24.1616 67.3484 24.7134 66.6658 24.7134Z" fill="#517EA1"/>
<path d="M66.6658 32.1306H40.7451C40.0625 32.1306 39.5107 31.5788 39.5107 30.8962C39.5107 30.2136 40.0625 29.6619 40.7451 29.6619H66.6658C67.3484 29.6619 67.9001 30.2136 67.9001 30.8962C67.9001 31.5788 67.3484 32.1306 66.6658 32.1306Z" fill="#517EA1"/>
<path d="M51.8508 35.8438H40.7451C40.0625 35.8438 39.5107 35.292 39.5107 34.6094C39.5107 33.9268 40.0625 33.375 40.7451 33.375H51.8508C52.5334 33.375 53.0852 33.9268 53.0852 34.6094C53.0852 35.292 52.5334 35.8438 51.8508 35.8438Z" fill="#517EA1"/>
<path d="M46.9088 42.0056H40.748C40.0654 42.0056 39.5137 41.4538 39.5137 40.7712C39.5137 40.0886 40.0654 39.5369 40.748 39.5369H46.9088C47.5914 39.5369 48.1432 40.0886 48.1432 40.7712C48.1432 41.4538 47.5914 42.0056 46.9088 42.0056Z" fill="#517EA1"/>
<path d="M51.8389 40.7715H50.5996C49.917 40.7715 49.3652 40.2197 49.3652 39.5371C49.3652 38.8545 49.917 38.3027 50.5996 38.3027H51.8389C52.5215 38.3027 53.0733 38.8545 53.0733 39.5371C53.0733 40.2197 52.5215 40.7715 51.8389 40.7715Z" fill="#517EA1"/>
<path d="M51.84 43.2401C51.3883 43.2401 50.9525 42.9907 50.7353 42.5587L49.496 40.09C49.1898 39.4814 49.4355 38.7396 50.0453 38.4334C50.6538 38.1285 51.3957 38.3742 51.7018 38.9827L52.9411 41.4515C53.2472 42.06 53.0016 42.8019 52.3918 43.108C52.2153 43.1981 52.0252 43.2401 51.84 43.2401Z" fill="#517EA1"/>
<path d="M51.8389 43.24H50.6045C49.9219 43.24 49.3701 42.6882 49.3701 42.0056C49.3701 41.323 49.9219 40.7712 50.6045 40.7712H51.8389C52.5215 40.7712 53.0732 41.323 53.0732 42.0056C53.0732 42.6882 52.5215 43.24 51.8389 43.24Z" fill="#517EA1"/>
<path d="M15.4531 61.7224C13.0708 61.7224 11.1328 59.7844 11.1328 57.4021C11.1328 55.0198 13.0708 53.0818 15.4531 53.0818C17.8355 53.0818 19.7734 55.0198 19.7734 57.4021C19.7734 59.7844 17.8342 61.7224 15.4531 61.7224ZM15.4531 55.5505C14.4323 55.5505 13.6016 56.3813 13.6016 57.4021C13.6016 58.4229 14.4323 59.2537 15.4531 59.2537C16.474 59.2537 17.3047 58.4229 17.3047 57.4021C17.3047 56.3813 16.474 55.5505 15.4531 55.5505Z" fill="#517EA1"/>
<path d="M39.5244 61.7224C37.1421 61.7224 35.2041 59.7844 35.2041 57.4021C35.2041 55.0198 37.1421 53.0818 39.5244 53.0818C41.9068 53.0818 43.8447 55.0198 43.8447 57.4021C43.8447 59.7844 41.9055 61.7224 39.5244 61.7224ZM39.5244 55.5505C38.5036 55.5505 37.6729 56.3813 37.6729 57.4021C37.6729 58.4229 38.5036 59.2537 39.5244 59.2537C40.5452 59.2537 41.376 58.4229 41.376 57.4021C41.376 56.3813 40.5452 55.5505 39.5244 55.5505Z" fill="#517EA1"/>
<path d="M63.5957 61.7224C61.2134 61.7224 59.2754 59.7844 59.2754 57.4021C59.2754 55.0198 61.2134 53.0818 63.5957 53.0818C65.9781 53.0818 67.916 55.0198 67.916 57.4021C67.916 59.7844 65.9768 61.7224 63.5957 61.7224ZM63.5957 55.5505C62.5749 55.5505 61.7441 56.3813 61.7441 57.4021C61.7441 58.4229 62.5749 59.2537 63.5957 59.2537C64.6165 59.2537 65.4473 58.4229 65.4473 57.4021C65.4473 56.3813 64.6165 55.5505 63.5957 55.5505Z" fill="#517EA1"/>
<path d="M35.7957 41.97H11.1045C10.4219 41.97 9.87012 41.4182 9.87012 40.7356C9.87012 40.053 10.4219 39.5012 11.1045 39.5012H35.7957C36.4783 39.5012 37.0301 40.053 37.0301 40.7356C37.0301 41.4182 36.4783 41.97 35.7957 41.97Z" fill="#517EA1"/>
<path d="M13.573 41.97C13.3779 41.97 13.1792 41.9231 12.9928 41.8256C12.3917 41.5046 12.1633 40.7566 12.4842 40.1542L22.3605 21.63C22.6826 21.0301 23.4245 20.8017 24.0318 21.1214C24.633 21.4423 24.8613 22.1904 24.5404 22.7927L14.6642 41.317C14.4407 41.733 14.0149 41.97 13.573 41.97Z" fill="#517EA1"/>
<path d="M33.3298 41.97C32.8892 41.97 32.4621 41.733 32.2387 41.317L22.3612 22.7927C22.0403 22.1916 22.2686 21.4436 22.8698 21.1214C23.4746 20.8017 24.2189 21.0301 24.5411 21.63L34.4186 40.1542C34.7395 40.7554 34.5111 41.5034 33.91 41.8256C33.7236 41.9231 33.5249 41.97 33.3298 41.97Z" fill="#517EA1"/>
<path d="M23.4502 41.9701C22.7676 41.9701 22.2158 41.4183 22.2158 40.7357V22.2114C22.2158 21.5288 22.7676 20.9771 23.4502 20.9771C24.1328 20.9771 24.6846 21.5288 24.6846 22.2114V40.7357C24.6846 41.4183 24.1328 41.9701 23.4502 41.9701Z" fill="#517EA1"/>
<path d="M35.7959 41.97C35.1133 41.97 34.5615 41.4182 34.5615 40.7356V39.4988C34.5615 38.8162 35.1133 38.2644 35.7959 38.2644C36.4785 38.2644 37.0303 38.8162 37.0303 39.4988V40.7356C37.0303 41.4182 36.4785 41.97 35.7959 41.97Z" fill="#517EA1"/>
<path d="M11.1045 41.97C10.4219 41.97 9.87012 41.4182 9.87012 40.7356V39.4988C9.87012 38.8162 10.4219 38.2644 11.1045 38.2644C11.7871 38.2644 12.3389 38.8162 12.3389 39.4988V40.7356C12.3389 41.4182 11.7871 41.97 11.1045 41.97Z" fill="#517EA1"/>
</g>
<defs>
<clipPath id="clip0">
<rect width="79" height="79" fill="white"/>
</clipPath>
</defs>
</svg>
