<svg width="82" height="82" viewBox="0 0 82 82" fill="none" xmlns="http://www.w3.org/2000/svg">
<g clip-path="url(#clip0)">
<path d="M69.6734 27.4014C69.6725 27.4014 69.6715 27.4014 69.6706 27.4014H1.17403C0.526397 27.4007 0.000685636 27.925 6.70333e-07 28.5727C6.70333e-07 28.5735 6.70333e-07 28.5745 6.70333e-07 28.5754V61.4538C-0.000684295 62.1014 0.523657 62.6271 1.17129 62.6278C1.17215 62.6278 1.17318 62.6278 1.17403 62.6278H47.7517C48.4 62.6278 48.9257 62.1021 48.9257 61.4538C48.9257 60.8054 48.4 60.2797 47.7517 60.2797H2.34806V29.7494H68.4966V32.6852C68.4959 33.3328 69.0202 33.8585 69.6679 33.8592C69.6687 33.8592 69.6698 33.8592 69.6706 33.8592C70.3182 33.8599 70.844 33.3356 70.8446 32.6879C70.8446 32.6871 70.8446 32.686 70.8446 32.6852V28.5754C70.8453 27.9278 70.321 27.4022 69.6734 27.4014Z" fill="#517EA1"/>
<path d="M61.7088 21.9506L6.91153 9.62118C6.60741 9.5532 6.28873 9.60834 6.02519 9.77462C5.76199 9.94226 5.57585 10.2072 5.50735 10.5116L2.76749 22.841C2.62673 23.4743 3.02606 24.1017 3.65932 24.2425C4.29257 24.3832 4.91999 23.9839 5.06076 23.3506L7.54444 12.1706L61.1937 24.2411C61.2786 24.2608 61.3655 24.2705 61.4526 24.2699C62.1009 24.2687 62.6256 23.7421 62.6246 23.0938C62.6236 22.5456 62.2434 22.0713 61.7088 21.9506Z" fill="#517EA1"/>
<path d="M55.0552 15.1569L22.1769 1.45762C21.6054 1.21942 20.947 1.46412 20.67 2.01792L17.9301 7.49765C17.6207 8.06994 17.8337 8.78487 18.4061 9.0943C18.9784 9.40374 19.6934 9.19071 20.0028 8.61825C20.015 8.59582 20.0264 8.57287 20.037 8.54958V8.55232L22.2851 4.05347L54.1483 17.3295C54.7484 17.5798 55.4378 17.2966 55.6881 16.6966C55.9385 16.0969 55.6553 15.4075 55.0552 15.1569Z" fill="#517EA1"/>
<path d="M55.8851 32.8811H45.0119C44.3636 32.8811 43.8379 33.4068 43.8379 34.0551C43.8379 34.7035 44.3636 35.2292 45.0119 35.2292H55.8851C56.5334 35.2292 57.0591 34.7035 57.0591 34.0551C57.0591 33.4068 56.5334 32.8811 55.8851 32.8811Z" fill="#517EA1"/>
<path d="M34.0525 32.9595C27.3944 32.9595 21.9971 38.3568 21.9971 45.0149C22.0039 51.67 27.3973 57.0634 34.0525 57.0703C40.7105 57.0703 46.1079 51.6729 46.1079 45.0149C46.1079 38.3568 40.7105 32.9595 34.0525 32.9595ZM34.0525 54.8784C28.6049 54.8784 24.189 50.4624 24.189 45.0149C24.195 39.5699 28.6075 35.1574 34.0525 35.1514C39.5 35.1514 43.916 39.5673 43.916 45.0149C43.916 50.4624 39.5 54.8784 34.0525 54.8784Z" fill="#517EA1"/>
<path d="M66.9306 36.7952C59.6699 36.7952 51.8613 38.5103 51.8613 42.2749V75.1533C51.8613 78.9178 59.6699 80.633 66.9306 80.633C74.1912 80.633 81.9998 78.9178 81.9998 75.1533V42.2749C81.9998 38.5103 74.1912 36.7952 66.9306 36.7952ZM79.26 75.1327C79.0531 75.893 74.9447 77.8931 66.9306 77.8931C58.9165 77.8931 54.8081 75.893 54.6012 75.1533V72.9997C57.5164 74.4683 62.3317 75.1533 66.9306 75.1533C71.5294 75.1533 76.3461 74.4614 79.26 72.9984V75.1327ZM79.26 69.653C79.0531 70.4133 74.9447 72.4134 66.9306 72.4134C58.9165 72.4134 54.8081 70.4133 54.6012 69.6735V67.52C57.5164 68.9886 62.3317 69.6735 66.9306 69.6735C71.5294 69.6735 76.3461 68.9817 79.26 67.5186V69.653ZM79.26 64.1733C79.0531 64.9336 74.9447 66.9337 66.9306 66.9337C58.9165 66.9337 54.8081 64.9336 54.6012 64.1938V62.0403C57.5164 63.5088 62.3317 64.1938 66.9306 64.1938C71.5294 64.1938 76.3461 63.502 79.26 62.0389V64.1733ZM79.26 58.6935C79.0531 59.4538 74.9447 61.4539 66.9306 61.4539C58.9165 61.4539 54.8081 59.4538 54.6012 58.7141V56.5605C57.5164 58.0291 62.3317 58.7141 66.9306 58.7141C71.5294 58.7141 76.3461 58.0223 79.26 56.5592V58.6935ZM79.26 53.2138C79.0531 53.9741 74.9447 55.9742 66.9306 55.9742C58.9165 55.9742 54.8081 53.9741 54.6012 53.2343V51.0808C57.5164 52.5425 62.3317 53.2343 66.9306 53.2343C71.5294 53.2343 76.3461 52.5425 79.26 51.0794V53.2138ZM79.26 47.7341C79.0531 48.4944 74.9447 50.4945 66.9306 50.4945C58.9165 50.4945 54.8081 48.4944 54.6012 47.7546V45.6011C57.5164 47.0628 62.3317 47.7546 66.9306 47.7546C71.5294 47.7546 76.3461 47.0628 79.26 45.5997V47.7341ZM66.9306 45.0148C58.9288 45.0148 54.8217 43.0201 54.6012 42.2996V42.2913C54.8217 41.5283 58.9288 39.535 66.9306 39.535C74.8762 39.535 78.986 41.4995 79.26 42.2749C78.986 43.0503 74.8762 45.0148 66.9306 45.0148Z" fill="#517EA1"/>
<path d="M23.0931 54.7987H12.7378L7.82795 49.4285V40.524L13.2501 35.2292H23.0931C23.7414 35.2292 24.2671 34.7035 24.2671 34.0551C24.2671 33.4068 23.7414 32.8811 23.0931 32.8811H12.7734C12.4665 32.8804 12.1715 32.9999 11.9514 33.214L5.83196 39.1828C5.60335 39.4499 5.478 39.7902 5.47852 40.1417V49.8847C5.47852 50.1777 5.58794 50.4601 5.78538 50.6765L11.3514 56.7645C11.5739 57.008 11.8886 57.1469 12.2186 57.1467H23.0931C23.7414 57.1467 24.2671 56.621 24.2671 55.9727C24.2671 55.3244 23.7416 54.7987 23.0931 54.7987Z" fill="#517EA1"/>
<path d="M34.7371 43.6446H33.3672C32.9412 43.6446 32.6822 43.4062 32.6822 43.3021C32.6822 43.198 32.9412 42.9596 33.3672 42.9596H36.792C37.5486 42.9596 38.162 42.3463 38.162 41.5897C38.162 40.8332 37.5486 40.2198 36.792 40.2198H35.4221C35.4221 39.4632 34.8087 38.8499 34.0522 38.8499C33.2956 38.8499 32.6822 39.4632 32.6822 40.2198V40.2814C31.1628 40.496 30.0117 41.7623 29.9424 43.2953C30.0405 45.0914 31.5704 46.4715 33.3672 46.3845H34.7371C35.1632 46.3845 35.4221 46.6228 35.4221 46.727C35.4221 46.8311 35.1632 47.0694 34.7371 47.0694H31.3123C30.5558 47.0694 29.9424 47.6828 29.9424 48.4394C29.9424 49.1959 30.5558 49.8093 31.3123 49.8093H32.6822C32.6822 50.5658 33.2956 51.1792 34.0522 51.1792C34.8087 51.1792 35.4221 50.5658 35.4221 49.8093V49.7477C36.9415 49.5331 38.0926 48.2668 38.162 46.7338C38.0638 44.9377 36.534 43.5576 34.7371 43.6446Z" fill="#517EA1"/>
</g>
<defs>
<clipPath id="clip0">
<rect width="82" height="82" fill="white"/>
</clipPath>
</defs>
</svg>
