<svg width="79" height="79" viewBox="0 0 79 79" fill="none" xmlns="http://www.w3.org/2000/svg">
<g clip-path="url(#clip0)">
<path d="M62.3799 42.3755H22.1561C21.517 42.3755 20.999 42.8936 20.999 43.5326C20.999 44.1715 21.5172 44.6896 22.1561 44.6896H62.3801C63.0191 44.6896 63.5371 44.1715 63.5371 43.5326C63.5371 42.8936 63.019 42.3755 62.3799 42.3755Z" fill="#517EA1"/>
<path d="M62.3799 49.832H22.1561C21.517 49.832 20.999 50.3502 20.999 50.9891C20.999 51.628 21.5172 52.1462 22.1561 52.1462H62.3801C63.0191 52.1462 63.5371 51.628 63.5371 50.9891C63.5371 50.3502 63.019 49.832 62.3799 49.832Z" fill="#517EA1"/>
<path d="M62.3799 57.2881H22.1561C21.517 57.2881 20.999 57.8062 20.999 58.4452C20.999 59.0841 21.5172 59.6022 22.1561 59.6022H62.3801C63.0191 59.6022 63.5371 59.0841 63.5371 58.4452C63.5371 57.8062 63.019 57.2881 62.3799 57.2881Z" fill="#517EA1"/>
<path d="M62.3799 64.7446H22.1561C21.517 64.7446 20.999 65.2628 20.999 65.9017C20.999 66.5406 21.5172 67.0588 22.1561 67.0588H62.3801C63.0191 67.0588 63.5371 66.5406 63.5371 65.9017C63.5371 65.2628 63.019 64.7446 62.3799 64.7446Z" fill="#517EA1"/>
<path d="M62.38 27.1104H47.5995C46.9604 27.1104 46.4424 27.6285 46.4424 28.2674C46.4424 28.9064 46.9605 29.4245 47.5995 29.4245H62.38C63.0191 29.4245 63.5371 28.9064 63.5371 28.2674C63.5371 27.6285 63.0191 27.1104 62.38 27.1104Z" fill="#517EA1"/>
<path d="M62.38 20.9937H47.5995C46.9604 20.9937 46.4424 21.5118 46.4424 22.1507C46.4424 22.7897 46.9605 23.3078 47.5995 23.3078H62.38C63.0191 23.3078 63.5371 22.7897 63.5371 22.1507C63.5371 21.5118 63.0191 20.9937 62.38 20.9937Z" fill="#517EA1"/>
<path d="M70.3947 64.3541C71.0338 64.3541 71.5518 63.836 71.5518 63.1971V11.3019C71.5518 8.79276 69.5105 6.75141 67.0013 6.75141H64.8004V4.55052C64.8006 2.04135 62.7592 0 60.25 0H11.9988C9.48959 0 7.44824 2.04135 7.44824 4.55052V67.6981C7.44824 70.2072 9.48959 72.2486 11.9988 72.2486H14.1995V74.4493C14.1995 76.9585 16.2409 78.9998 18.75 78.9998H67.0011C69.5103 78.9998 71.5517 76.9585 71.5517 74.4493V68.6066C71.5517 67.9675 71.0335 67.4495 70.3946 67.4495C69.7556 67.4495 69.2375 67.9676 69.2375 68.6066V74.4495C69.2375 75.6826 68.2343 76.6857 67.0013 76.6857H18.7502C17.517 76.6857 16.514 75.6826 16.514 74.4495V11.3019C16.514 10.0688 17.5172 9.06571 18.7502 9.06571H67.0013C68.2344 9.06571 69.2375 10.069 69.2375 11.3019V63.1971C69.2375 63.836 69.7556 64.3541 70.3947 64.3541ZM14.1995 11.3019V69.9344H11.9988C10.7656 69.9344 9.76254 68.9312 9.76254 67.6982V4.55052C9.76254 3.31738 10.7658 2.3143 11.9988 2.3143H60.25C61.4832 2.3143 62.4863 3.31754 62.4863 4.55052V6.75126H18.7502C16.241 6.75141 14.1995 8.79276 14.1995 11.3019Z" fill="#517EA1"/>
<path d="M22.0635 22.8594C21.4244 22.8594 20.9064 23.3776 20.9064 24.0165V32.7554C20.9064 34.5701 22.2631 36.0822 24.0642 36.2774C24.5007 36.3251 36.9724 36.2791 36.9909 36.2789C36.9951 36.2785 36.9994 36.278 37.0036 36.2775C38.8056 36.0831 40.1631 34.5707 40.1631 32.7554V17.6632C40.1631 15.7096 38.5739 14.1204 36.6203 14.1204H24.4491C22.4955 14.1204 20.9062 15.7096 20.9062 17.6632V18.569C20.9062 19.2081 21.4244 19.7261 22.0633 19.7261C22.7023 19.7261 23.2204 19.208 23.2204 18.569V17.6632C23.2204 16.9858 23.7715 16.4347 24.4489 16.4347H36.6202C37.2975 16.4347 37.8487 16.9857 37.8487 17.6632V29.5099C36.9645 28.5735 35.9044 27.8113 34.7195 27.2712C35.2162 26.4888 35.4916 25.5721 35.4916 24.6161C35.4916 21.8829 33.2679 19.6592 30.5345 19.6592C27.8013 19.6592 25.5776 21.8829 25.5776 24.6161C25.5776 25.5723 25.853 26.4888 26.3497 27.2712C25.1647 27.8113 24.1045 28.5735 23.2204 29.5101V24.0165C23.2205 23.3774 22.7026 22.8594 22.0635 22.8594ZM30.5347 21.9733C31.992 21.9733 33.1775 23.1588 33.1775 24.6161C33.1775 25.4988 32.739 26.32 32.0047 26.8128C31.5697 27.1046 31.0615 27.2589 30.5347 27.2589C30.0079 27.2589 29.4997 27.1048 29.0648 26.8128C28.3304 26.32 27.892 25.4988 27.892 24.6161C27.892 23.1588 29.0775 21.9733 30.5347 21.9733ZM28.2605 29.0177C28.9607 29.3803 29.736 29.573 30.5347 29.573C31.3332 29.573 32.1085 29.3803 32.8089 29.0177C34.9994 29.6874 36.7721 31.287 37.6667 33.4011C37.4737 33.715 37.1428 33.9356 36.7518 33.9768C36.6771 33.9815 24.52 33.9938 24.3441 33.9793L24.3188 33.977C24.3182 33.977 24.3176 33.9768 24.317 33.9768C23.9261 33.9355 23.5955 33.7148 23.4025 33.4011C24.2972 31.287 26.0699 29.6874 28.2605 29.0177Z" fill="#517EA1"/>
</g>
<defs>
<clipPath id="clip0">
<rect width="79" height="79" fill="white"/>
</clipPath>
</defs>
</svg>
