<svg width="65" height="65" viewBox="0 0 65 65" fill="none" xmlns="http://www.w3.org/2000/svg">
<path d="M54.5898 57.7873C55.1157 57.7873 55.542 57.361 55.542 56.8351V13.6475C55.542 12.0724 54.2607 10.791 52.6855 10.791H51.7334V8.25195C51.7334 6.67685 50.4521 5.39551 48.877 5.39551H44.6707C44.1449 5.39551 43.7186 5.82182 43.7186 6.34766C43.7186 6.8735 44.1449 7.2998 44.6707 7.2998H48.877C49.402 7.2998 49.8291 7.72688 49.8291 8.25195V56.748C49.8291 57.2731 49.402 57.7002 48.877 57.7002H12.3145C11.7894 57.7002 11.3623 57.2731 11.3623 56.748V52.876C11.3623 52.3501 10.936 51.9238 10.4102 51.9238C9.88432 51.9238 9.45801 52.3501 9.45801 52.876V56.748C9.45801 58.3232 10.7393 59.6045 12.3145 59.6045H13.2666V62.1436C13.2666 63.7187 14.5479 65 16.123 65H52.6855C54.2607 65 55.542 63.7187 55.542 62.1436V60.9271C55.542 60.4012 55.1157 59.9749 54.5898 59.9749C54.064 59.9749 53.6377 60.4012 53.6377 60.9271V62.1436C53.6377 62.6686 53.2106 63.0957 52.6855 63.0957H16.123C15.598 63.0957 15.1709 62.6686 15.1709 62.1436V59.6045H48.877C50.4521 59.6045 51.7334 58.3232 51.7334 56.748V12.6953H52.6855C53.2106 12.6953 53.6377 13.1224 53.6377 13.6475V56.8351C53.6377 57.361 54.064 57.7873 54.5898 57.7873Z" fill="#517EA1"/>
<path d="M10.4102 49.6563C10.936 49.6563 11.3623 49.23 11.3623 48.7042V8.25195C11.3623 7.727 11.7895 7.2998 12.3145 7.2998H14.0467V10.4965C14.0467 11.4989 14.8623 12.3145 15.8647 12.3145H26.8284C27.8308 12.3145 28.6463 11.4989 28.6463 10.4965V7.2998H40.5848C41.1106 7.2998 41.5369 6.8735 41.5369 6.34766C41.5369 5.82182 41.1106 5.39551 40.5848 5.39551H28.356C27.8935 4.45644 26.9268 3.80859 25.8111 3.80859H25.0916V2.54896C25.0916 1.14347 23.9482 0 22.5427 0H20.1503C18.7448 0 17.6013 1.14347 17.6013 2.54896V3.80859H16.8818C15.7662 3.80859 14.7994 4.45644 14.3369 5.39551H12.3145C10.7393 5.39551 9.45801 6.67685 9.45801 8.25195V48.7042C9.45801 49.23 9.88432 49.6563 10.4102 49.6563ZM19.5057 2.54896C19.5057 2.1935 19.7949 1.9043 20.1504 1.9043H22.5428C22.8983 1.9043 23.1875 2.1935 23.1875 2.54896V3.80859H19.5058V2.54896H19.5057ZM16.882 5.71289H25.811C26.3244 5.71289 26.7419 6.13057 26.7419 6.64384V10.4102H15.9509V6.64384C15.951 6.13057 16.3686 5.71289 16.882 5.71289Z" fill="#517EA1"/>
<path d="M44.3701 21.2012H29.1357C28.6099 21.2012 28.1836 21.6275 28.1836 22.1533C28.1836 22.6792 28.6099 23.1055 29.1357 23.1055H44.3701C44.896 23.1055 45.3223 22.6792 45.3223 22.1533C45.3223 21.6275 44.896 21.2012 44.3701 21.2012Z" fill="#517EA1"/>
<path d="M44.3701 25.2637H29.1357C28.6099 25.2637 28.1836 25.69 28.1836 26.2158C28.1836 26.7417 28.6099 27.168 29.1357 27.168H44.3701C44.896 27.168 45.3223 26.7417 45.3223 26.2158C45.3223 25.69 44.896 25.2637 44.3701 25.2637Z" fill="#517EA1"/>
<path d="M44.3701 33.5156H29.1357C28.6099 33.5156 28.1836 33.9419 28.1836 34.4678C28.1836 34.9936 28.6099 35.4199 29.1357 35.4199H44.3701C44.896 35.4199 45.3223 34.9936 45.3223 34.4678C45.3223 33.9419 44.896 33.5156 44.3701 33.5156Z" fill="#517EA1"/>
<path d="M44.3701 37.5781H29.1357C28.6099 37.5781 28.1836 38.0044 28.1836 38.5303C28.1836 39.0561 28.6099 39.4824 29.1357 39.4824H44.3701C44.896 39.4824 45.3223 39.0561 45.3223 38.5303C45.3223 38.0044 44.896 37.5781 44.3701 37.5781Z" fill="#517EA1"/>
<path d="M44.3701 45.8301H29.1357C28.6099 45.8301 28.1836 46.2564 28.1836 46.7822C28.1836 47.3081 28.6099 47.7344 29.1357 47.7344H44.3701C44.896 47.7344 45.3223 47.3081 45.3223 46.7822C45.3223 46.2564 44.896 45.8301 44.3701 45.8301Z" fill="#517EA1"/>
<path d="M44.3701 49.8926H29.1357C28.6099 49.8926 28.1836 50.3189 28.1836 50.8447C28.1836 51.3706 28.6099 51.7969 29.1357 51.7969H44.3701C44.896 51.7969 45.3223 51.3706 45.3223 50.8447C45.3223 50.3189 44.896 49.8926 44.3701 49.8926Z" fill="#517EA1"/>
<path d="M27.4478 19.8212C27.1064 19.4213 26.5054 19.3739 26.1054 19.7154L25.2257 20.4663C24.9822 19.9985 24.4936 19.6778 23.9307 19.6778H17.3291C16.5241 19.6778 15.8691 20.3327 15.8691 21.1377V27.7393C15.8691 28.5443 16.5241 29.1993 17.3291 29.1993H23.9307C24.7357 29.1993 25.3906 28.5443 25.3906 27.7393V22.8294L27.3419 21.1638C27.7418 20.8223 27.7893 20.2213 27.4478 19.8212ZM23.4863 27.295H17.7734V21.5821H23.4863V21.9511L21.597 23.5641L20.6949 22.5867C20.3383 22.2002 19.7359 22.1762 19.3494 22.5328C18.963 22.8896 18.939 23.492 19.2956 23.8783L20.819 25.5287C21.0064 25.7317 21.2621 25.835 21.5191 25.835C21.7381 25.835 21.9579 25.7599 22.1369 25.607L23.4865 24.4549V27.295H23.4863Z" fill="#517EA1"/>
<path d="M27.4479 32.2246C27.1065 31.8247 26.5055 31.7772 26.1055 32.1187L25.2561 32.8437C25.0247 32.342 24.5183 31.9922 23.9307 31.9922H17.3291C16.5241 31.9922 15.8691 32.6472 15.8691 33.4522V40.0538C15.8691 40.8588 16.5241 41.5137 17.3291 41.5137H23.9307C24.7357 41.5137 25.3906 40.8588 25.3906 40.0538V35.2326L27.3419 33.567C27.7419 33.2255 27.7894 32.6245 27.4479 32.2246ZM23.4865 39.6094H17.7736V33.8965H23.4865V34.3545L21.5971 35.9674L20.695 34.99C20.3384 34.6035 19.736 34.5794 19.3496 34.9362C18.9631 35.2929 18.9391 35.8953 19.2957 36.2816L20.8192 37.932C21.0066 38.135 21.2622 38.2383 21.5192 38.2383C21.7382 38.2383 21.9581 38.1632 22.1371 38.0103L23.4866 36.8582V39.6094H23.4865Z" fill="#517EA1"/>
<path d="M26.1054 44.6616L25.3235 45.3291C25.1371 44.7371 24.5833 44.3066 23.9307 44.3066H17.3291C16.5241 44.3066 15.8691 44.9616 15.8691 45.7666V52.3682C15.8691 53.1732 16.5241 53.8281 17.3291 53.8281H23.9307C24.7357 53.8281 25.3906 53.1732 25.3906 52.3682V47.7756L27.3419 46.11C27.7418 45.7686 27.7893 45.1676 27.4478 44.7676C27.1064 44.3676 26.5054 44.3201 26.1054 44.6616ZM23.4863 51.9238H17.7734V46.2109H23.4863V46.8974L21.597 48.5103L20.6949 47.5329C20.3383 47.1465 19.7359 47.1223 19.3494 47.4791C18.963 47.8358 18.939 48.4382 19.2956 48.8245L20.819 50.4749C21.0064 50.6779 21.2621 50.7812 21.5191 50.7812C21.7381 50.7812 21.9579 50.7061 22.1369 50.5532L23.4865 49.4011V51.9238H23.4863Z" fill="#517EA1"/>
</svg>
