<svg width="64" height="64" viewBox="0 0 64 64" fill="none" xmlns="http://www.w3.org/2000/svg">
<g clip-path="url(#clip0)">
<path d="M46.6434 2.51404L9.71338 0.0439145C8.5095 -0.0358355 7.46538 0.877039 7.38475 2.08054L7.09588 6.40016H2.1875C0.981375 6.40016 0 7.38154 0 8.58766V61.7709C0 62.977 0.981375 63.9584 2.1875 63.9584H30.4551C30.7001 63.9584 30.9429 63.8583 31.1166 63.6853L35.3839 59.4369C35.4273 59.4462 35.4715 59.4535 35.517 59.4565L42.8023 59.9438C43.965 60.0205 45.0529 59.0748 45.1309 57.9072L48.68 4.84279C48.7599 3.65179 47.8343 2.59366 46.6434 2.51404ZM31.3926 60.7518V54.2393C31.3926 54.067 31.5329 53.9268 31.7051 53.9268H38.1926L31.3926 60.7518ZM43.26 57.7822C43.2295 57.9709 43.1186 58.0679 42.9275 58.073L37.1425 57.686L41.1115 53.7347C41.2883 53.5588 41.3876 53.3197 41.3876 53.0703V8.58779C41.3876 7.38166 40.4063 6.40029 39.2001 6.40029H29.451C28.2389 6.40029 28.2389 8.27529 29.451 8.27529H39.2001C39.3725 8.27529 39.5126 8.41554 39.5126 8.58779V52.0518H31.7051C30.499 52.0518 29.5176 53.0332 29.5176 54.2393V62.0834H2.1875C2.01525 62.0834 1.875 61.9432 1.875 61.7709V8.58779C1.875 8.41554 2.01525 8.27529 2.1875 8.27529H24.4585C25.6706 8.27529 25.6706 6.40029 24.4585 6.40029H8.975L9.2555 2.20579C9.286 2.01691 9.39688 1.92004 9.58813 1.91491L46.5181 4.38491C46.707 4.41541 46.804 4.52629 46.8091 4.71754L43.26 57.7822Z" fill="#517EA1"/>
<path d="M33.4783 29.6313H7.90918C7.39143 29.6313 6.97168 30.0511 6.97168 30.5688C6.97168 31.0866 7.39143 31.5063 7.90918 31.5063H33.4783C33.9962 31.5063 34.4158 31.0866 34.4158 30.5688C34.4158 30.0511 33.9962 29.6313 33.4783 29.6313Z" fill="#517EA1"/>
<path d="M33.4783 36.167H7.90918C7.39143 36.167 6.97168 36.5867 6.97168 37.1045C6.97168 37.6222 7.39143 38.042 7.90918 38.042H33.4783C33.9962 38.042 34.4158 37.6222 34.4158 37.1045C34.4158 36.5867 33.9962 36.167 33.4783 36.167Z" fill="#517EA1"/>
<path d="M6.97168 24.0327C6.97168 24.5505 7.39143 24.9702 7.90918 24.9702H33.4783C33.9962 24.9702 34.4158 24.5505 34.4158 24.0327C34.4158 23.515 33.9962 23.0952 33.4783 23.0952H7.90918C7.39143 23.0952 6.97168 23.515 6.97168 24.0327Z" fill="#517EA1"/>
<path d="M11.4756 17.4976C11.4756 18.0153 11.8953 18.4351 12.4131 18.4351H28.974C29.4917 18.4351 29.9115 18.0153 29.9115 17.4976C29.9115 16.9798 29.4917 16.5601 28.974 16.5601H12.4131C11.8953 16.5601 11.4756 16.9798 11.4756 17.4976Z" fill="#517EA1"/>
<path d="M24.3442 54.8484C22.6581 54.8529 20.9719 54.8565 19.2858 54.8592C18.719 54.86 18.1524 54.8608 17.5858 54.8612C16.5589 54.8619 15.8671 54.6558 15.637 53.5263C15.4425 52.5713 14.0915 52.6997 13.8291 53.5263C13.1803 55.5684 12.1073 54.7683 11.5063 53.3947C10.9067 52.0243 10.7529 50.4905 10.491 49.0322C10.2985 47.9605 8.6778 48.2609 8.64955 49.2814C8.6123 50.6253 8.4868 51.9478 8.14567 53.2512C7.7938 54.5959 7.26642 55.8883 6.74292 57.1732C6.28655 58.2933 8.1013 58.7752 8.55092 57.6717C9.0148 56.5332 9.4793 55.3884 9.82505 54.2074C10.4675 55.7524 11.7968 57.4999 13.6909 56.47C14.0433 56.2784 14.3724 56.006 14.6613 55.6884C15.6463 56.8267 17.1124 56.7369 18.4843 56.7353C20.4377 56.7328 22.3911 56.7285 24.3444 56.7234C25.5506 56.7203 25.5528 54.8453 24.3442 54.8484Z" fill="#517EA1"/>
<path d="M63.2417 30.8051C62.7545 30.3204 62.0848 30.0717 61.4048 30.0534L60.6963 30.0569V28.717C60.6963 27.9009 60.2115 27.0386 59.5172 26.6092V24.722C59.5172 20.8384 53.4706 20.8552 53.4706 24.7402V26.6277C52.7633 27.065 52.2888 27.8454 52.2888 28.7342V30.107C49.168 30.3195 49.1591 35.0751 52.2923 35.261C52.3123 39.4579 52.3113 43.586 52.2888 47.8531C52.2826 49.0299 54.1574 49.0989 54.1638 47.863C54.1863 43.5922 54.1873 39.4605 54.1674 35.2601L58.8188 35.237C58.8188 35.237 58.8128 49.093 58.8128 55.335C58.8128 58.3772 54.1604 58.3975 54.1604 55.3034L54.162 53.5937C54.2352 52.3837 52.3636 52.2709 52.2904 53.4807V55.085C52.2904 56.46 52.7156 57.6245 53.5389 58.4436C53.6121 60.4052 54.4386 62.3034 55.835 63.6881C56.2357 64.0856 56.7903 63.9641 57.178 63.6654C58.5987 62.2422 59.3992 60.3661 59.4492 58.3636C60.068 57.7472 60.6877 57.1266 60.6877 55.0016L60.6884 46.4577C62.3097 46.9189 64.0002 45.6642 64.0002 43.9645V32.6305C64.0002 31.9401 63.7308 31.2919 63.2417 30.8051ZM54.1638 30.0892V28.7341C54.1638 28.4567 54.3541 28.2241 54.6104 28.155L58.3635 28.1364C58.4685 28.1624 58.5654 28.212 58.6439 28.2902C58.7583 28.4041 58.8213 28.5556 58.8213 28.717V30.0662L54.1638 30.0892ZM56.4977 23.5892C57.0732 23.5892 57.642 24.1535 57.642 24.722V26.2427L55.3455 26.2541V24.7402C55.3457 24.1086 55.8622 23.5924 56.4977 23.5892ZM56.4963 61.5769C56.0604 60.9591 55.7452 60.2605 55.5692 59.5261C55.8594 59.589 56.1534 59.6217 56.4475 59.6217C56.7759 59.6217 57.1042 59.581 57.4274 59.5021C57.2557 60.2476 56.9409 60.9505 56.4963 61.5769ZM62.1252 43.9645C62.1252 44.8521 60.6937 44.922 60.6937 43.9809C60.6937 43.9809 60.6953 35.1091 60.6963 34.2959C60.6969 33.7714 60.2609 33.3572 59.7515 33.3572L52.4529 33.3935C51.5476 33.3935 51.5688 31.9771 52.4621 31.9727L61.414 31.9284C61.8469 31.9652 62.0839 32.1994 62.125 32.6305V43.9645H62.1252Z" fill="#517EA1"/>
</g>
<defs>
<clipPath id="clip0">
<rect width="64" height="64" fill="white"/>
</clipPath>
</defs>
</svg>
