<svg width="64" height="64" viewBox="0 0 64 64" fill="none" xmlns="http://www.w3.org/2000/svg">
<g clip-path="url(#clip0)">
<path d="M54.3792 21.3862C54.3785 21.3862 54.3777 21.3862 54.3771 21.3862H0.916318C0.410846 21.3857 0.000535131 21.7949 5.23186e-07 22.3004C5.23186e-07 22.3011 5.23186e-07 22.3019 5.23186e-07 22.3025V47.9637C-0.000534084 48.4692 0.408708 48.8795 0.914179 48.88C0.914848 48.88 0.915649 48.88 0.916318 48.88H37.2696C37.7756 48.88 38.1859 48.4697 38.1859 47.9637C38.1859 47.4577 37.7756 47.0474 37.2696 47.0474H1.83263V23.2189H53.4607V25.5102C53.4602 26.0157 53.8695 26.426 54.3749 26.4265C54.3756 26.4265 54.3764 26.4265 54.3771 26.4265C54.8825 26.427 55.2928 26.0178 55.2934 25.5123C55.2934 25.5117 55.2934 25.5109 55.2934 25.5102V22.3025C55.2939 21.7971 54.8847 21.3869 54.3792 21.3862Z" fill="#517EA1"/>
<path d="M48.1627 17.1324L5.39411 7.50948C5.15674 7.45642 4.90801 7.49945 4.70232 7.62923C4.4969 7.76008 4.35162 7.96683 4.29816 8.20447L2.15973 17.8274C2.04987 18.3216 2.36154 18.8113 2.85579 18.9212C3.35003 19.0311 3.83973 18.7194 3.9496 18.2251L5.88808 9.49929L47.7607 18.9201C47.827 18.9355 47.8947 18.9431 47.9628 18.9426C48.4688 18.9417 48.8783 18.5307 48.8775 18.0247C48.8767 17.5969 48.58 17.2266 48.1627 17.1324Z" fill="#517EA1"/>
<path d="M42.9694 11.83L17.3082 1.13786C16.8622 0.951946 16.3483 1.14293 16.1321 1.57516L13.9936 5.85202C13.7521 6.29869 13.9184 6.85669 14.3652 7.09819C14.8119 7.3397 15.3699 7.17344 15.6114 6.72664C15.6209 6.70913 15.6298 6.69122 15.6381 6.67305V6.67519L17.3927 3.16388L42.2615 13.5256C42.7299 13.721 43.2679 13.5 43.4633 13.0317C43.6587 12.5636 43.4377 12.0255 42.9694 11.83Z" fill="#517EA1"/>
<path d="M43.6175 25.6636H35.1312C34.6252 25.6636 34.2148 26.0739 34.2148 26.5799C34.2148 27.0859 34.6252 27.4962 35.1312 27.4962H43.6175C44.1235 27.4962 44.5338 27.0859 44.5338 26.5799C44.5338 26.0739 44.1235 25.6636 43.6175 25.6636Z" fill="#517EA1"/>
<path d="M26.5771 25.7246C21.3805 25.7246 17.168 29.9372 17.168 35.1337C17.1733 40.3279 21.3828 44.5374 26.5771 44.5428C31.7736 44.5428 35.9861 40.3302 35.9861 35.1337C35.9861 29.9372 31.7736 25.7246 26.5771 25.7246ZM26.5771 42.832C22.3253 42.832 18.8787 39.3854 18.8787 35.1337C18.8834 30.884 22.3273 27.44 26.5771 27.4354C30.8288 27.4354 34.2754 30.882 34.2754 35.1337C34.2754 39.3854 30.8288 42.832 26.5771 42.832Z" fill="#517EA1"/>
<path d="M52.2389 28.7178C46.5721 28.7178 40.4775 30.0564 40.4775 32.9946V58.6558C40.4775 61.594 46.5721 62.9327 52.2389 62.9327C57.9057 62.9327 64.0003 61.594 64.0003 58.6558V32.9946C64.0003 30.0564 57.9057 28.7178 52.2389 28.7178ZM61.8618 58.6398C61.7004 59.2332 58.4938 60.7942 52.2389 60.7942C45.984 60.7942 42.7774 59.2332 42.616 58.6558V56.975C44.8913 58.1212 48.6495 58.6558 52.2389 58.6558C55.8283 58.6558 59.5876 58.1158 61.8618 56.9739V58.6398ZM61.8618 54.3629C61.7004 54.9563 58.4938 56.5174 52.2389 56.5174C45.984 56.5174 42.7774 54.9563 42.616 54.3789V52.6981C44.8913 53.8443 48.6495 54.3789 52.2389 54.3789C55.8283 54.3789 59.5876 53.839 61.8618 52.6971V54.3629ZM61.8618 50.086C61.7004 50.6795 58.4938 52.2405 52.2389 52.2405C45.984 52.2405 42.7774 50.6795 42.616 50.1021V48.4213C44.8913 49.5675 48.6495 50.1021 52.2389 50.1021C55.8283 50.1021 59.5876 49.5621 61.8618 48.4202V50.086ZM61.8618 45.8092C61.7004 46.4026 58.4938 47.9636 52.2389 47.9636C45.984 47.9636 42.7774 46.4026 42.616 45.8252V44.1444C44.8913 45.2906 48.6495 45.8252 52.2389 45.8252C55.8283 45.8252 59.5876 45.2853 61.8618 44.1433V45.8092ZM61.8618 41.5323C61.7004 42.1257 58.4938 43.6868 52.2389 43.6868C45.984 43.6868 42.7774 42.1257 42.616 41.5484V39.8675C44.8913 41.0084 48.6495 41.5484 52.2389 41.5484C55.8283 41.5484 59.5876 41.0084 61.8618 39.8665V41.5323ZM61.8618 37.2555C61.7004 37.8489 58.4938 39.4099 52.2389 39.4099C45.984 39.4099 42.7774 37.8489 42.616 37.2715V35.5907C44.8913 36.7315 48.6495 37.2715 52.2389 37.2715C55.8283 37.2715 59.5876 36.7315 61.8618 35.5896V37.2555ZM52.2389 35.1331C45.9936 35.1331 42.7881 33.5763 42.616 33.0139V33.0075C42.7881 32.4119 45.9936 30.8562 52.2389 30.8562C58.4403 30.8562 61.648 32.3895 61.8618 32.9946C61.648 33.5998 58.4403 35.1331 52.2389 35.1331Z" fill="#517EA1"/>
<path d="M18.0234 42.77H9.94116L6.1091 38.5786V31.6287L10.341 27.4962H18.0234C18.5294 27.4962 18.9397 27.0859 18.9397 26.5799C18.9397 26.0739 18.5294 25.6636 18.0234 25.6636H9.96896C9.72946 25.663 9.49918 25.7563 9.32743 25.9234L4.55125 30.582C4.37282 30.7905 4.27499 31.056 4.27539 31.3304V38.9347C4.27539 39.1634 4.3608 39.3838 4.5149 39.5527L8.85912 44.3043C9.03273 44.4943 9.27838 44.6027 9.53593 44.6026H18.0234C18.5294 44.6026 18.9397 44.1923 18.9397 43.6863C18.9397 43.1803 18.5295 42.77 18.0234 42.77Z" fill="#517EA1"/>
<path d="M27.1124 34.064H26.0432C25.7106 34.064 25.5085 33.878 25.5085 33.7967C25.5085 33.7155 25.7106 33.5294 26.0432 33.5294H28.7162C29.3067 33.5294 29.7854 33.0507 29.7854 32.4602C29.7854 31.8697 29.3067 31.391 28.7162 31.391H27.647C27.647 30.8005 27.1682 30.3218 26.5778 30.3218C25.9873 30.3218 25.5085 30.8005 25.5085 31.391V31.4391C24.3227 31.6066 23.4242 32.5949 23.3701 33.7914C23.4467 35.1933 24.6407 36.2704 26.0432 36.2025H27.1124C27.4449 36.2025 27.647 36.3885 27.647 36.4698C27.647 36.551 27.4449 36.7371 27.1124 36.7371H24.4393C23.8489 36.7371 23.3701 37.2158 23.3701 37.8063C23.3701 38.3968 23.8489 38.8755 24.4393 38.8755H25.5085C25.5085 39.466 25.9873 39.9447 26.5778 39.9447C27.1682 39.9447 27.647 39.466 27.647 38.8755V38.8274C28.8329 38.6599 29.7313 37.6716 29.7854 36.4751C29.7088 35.0732 28.5148 33.9961 27.1124 34.064Z" fill="#517EA1"/>
</g>
<defs>
<clipPath id="clip0">
<rect width="64" height="64" fill="white"/>
</clipPath>
</defs>
</svg>
