<svg width="65" height="65" viewBox="0 0 65 65" fill="none" xmlns="http://www.w3.org/2000/svg">
<path d="M21.8994 5.52246C22.3201 5.52246 22.6611 5.18143 22.6611 4.76074C22.6611 4.34006 22.3201 3.99902 21.8994 3.99902C21.4787 3.99902 21.1377 4.34006 21.1377 4.76074C21.1377 5.18143 21.4787 5.52246 21.8994 5.52246Z" fill="#517EA1"/>
<path d="M25.708 55.4785H18.0908C16.5158 55.4785 15.2344 56.7599 15.2344 58.335C15.2344 59.9101 16.5158 61.1914 18.0908 61.1914H25.708C27.283 61.1914 28.5645 59.9101 28.5645 58.335C28.5645 56.7599 27.283 55.4785 25.708 55.4785ZM25.708 59.2871H18.0908C17.5657 59.2871 17.1387 58.86 17.1387 58.335C17.1387 57.8099 17.5657 57.3828 18.0908 57.3828H25.708C26.2331 57.3828 26.6602 57.8099 26.6602 58.335C26.6602 58.86 26.2331 59.2871 25.708 59.2871Z" fill="#517EA1"/>
<path d="M28.5645 26.7871C28.5645 27.3129 28.9906 27.7393 29.5166 27.7393H56.4307C56.9566 27.7393 57.3828 27.3129 57.3828 26.7871C57.3828 26.2613 56.9566 25.835 56.4307 25.835H29.5166C28.9906 25.835 28.5645 26.2613 28.5645 26.7871Z" fill="#517EA1"/>
<path d="M56.4307 29.6436H29.5166C28.9906 29.6436 28.5645 30.0699 28.5645 30.5957C28.5645 31.1215 28.9906 31.5479 29.5166 31.5479H56.4307C56.9566 31.5479 57.3828 31.1215 57.3828 30.5957C57.3828 30.0699 56.9566 29.6436 56.4307 29.6436Z" fill="#517EA1"/>
<path d="M56.4307 33.4521H29.5166C28.9906 33.4521 28.5645 33.8785 28.5645 34.4043C28.5645 34.9301 28.9906 35.3564 29.5166 35.3564H56.4307C56.9566 35.3564 57.3828 34.9301 57.3828 34.4043C57.3828 33.8785 56.9566 33.4521 56.4307 33.4521Z" fill="#517EA1"/>
<path d="M64.0479 18.5352H43.7988V4.76074C43.7988 2.13561 41.6632 0 39.0381 0H4.76074C2.13561 0 0 2.13561 0 4.76074V60.2393C0 62.8644 2.13561 65 4.76074 65H39.0381C41.6632 65 43.7988 62.8644 43.7988 60.2393V42.6562H64.0479C64.5738 42.6562 65 42.2299 65 41.7041V19.4873C65 18.9615 64.5738 18.5352 64.0479 18.5352ZM41.8945 60.2393C41.8945 61.8144 40.6131 63.0957 39.0381 63.0957H4.76074C3.18576 63.0957 1.9043 61.8144 1.9043 60.2393V4.76074C1.9043 3.18563 3.18576 1.9043 4.76074 1.9043H39.0381C40.6131 1.9043 41.8945 3.18563 41.8945 4.76074V18.5352H39.9902V4.76074C39.9902 4.2349 39.5641 3.80859 39.0381 3.80859H27.2855C27.033 3.80859 26.7909 3.90889 26.6122 4.08751L23.9208 6.77904C23.3778 7.31948 22.6599 7.61719 21.8994 7.61719C21.1386 7.61719 20.4221 7.31999 19.8817 6.78019C19.8773 6.77574 18.2113 5.1124 17.1864 4.08751C17.0079 3.90889 16.7658 3.80859 16.5132 3.80859H4.76074C4.23478 3.80859 3.80859 4.2349 3.80859 4.76074V26.7871C3.80859 27.313 4.23478 27.7393 4.76074 27.7393C5.28671 27.7393 5.71289 27.313 5.71289 26.7871V5.71289H16.1189C16.1189 5.71289 18.4295 8.02204 18.5407 8.12259L18.5359 8.12741C19.4359 9.02637 20.6304 9.52148 21.8994 9.52148C23.1668 9.52148 24.3618 9.02687 25.2658 8.12703L27.6798 5.71289H38.0859V18.5352H21.8994C21.3734 18.5352 20.9473 18.9615 20.9473 19.4873V27.1508L15.7607 29.7441C15.4383 29.9055 15.2344 30.235 15.2344 30.5957C15.2344 30.9564 15.4381 31.2861 15.7607 31.4473L20.9473 34.0406V41.7041C20.9473 42.2299 21.3734 42.6562 21.8994 42.6562H38.0859V51.6699H5.71289V30.5957C5.71289 30.0699 5.28671 29.6436 4.76074 29.6436C4.23478 29.6436 3.80859 30.0699 3.80859 30.5957V52.6221C3.80859 53.1479 4.23478 53.5742 4.76074 53.5742H39.0381C39.5641 53.5742 39.9902 53.1479 39.9902 52.6221V42.6562H41.8945V60.2393ZM63.0957 40.752H22.8516V33.4521C22.8516 33.0915 22.6478 32.7618 22.3252 32.6005L18.3157 30.5957L22.3253 28.5909C22.6478 28.4295 22.8517 28.0999 22.8517 27.7393V20.4395H63.0958V40.752H63.0957Z" fill="#517EA1"/>
</svg>
