<svg width="23" height="23" viewBox="0 0 23 23" fill="none" xmlns="http://www.w3.org/2000/svg">
<path d="M16.4903 8.42667C16.1165 8.05244 15.5089 8.05244 15.1352 8.42667L11.021 12.5403L9.30275 10.8225C8.929 10.4483 8.32141 10.4483 7.94766 10.8225C7.57343 11.1967 7.57343 11.8034 7.94766 12.1776L10.3435 14.5734C10.5304 14.7608 10.7757 14.8542 11.021 14.8542C11.2664 14.8542 11.5117 14.7608 11.6986 14.5734L16.4903 9.78175C16.8645 9.40752 16.8645 8.8009 16.4903 8.42667Z" fill="#517EA1"/>
<path d="M22.0417 10.5417C21.5127 10.5417 21.0833 10.971 21.0833 11.5C21.0833 16.7843 16.7843 21.0833 11.5 21.0833C6.21575 21.0833 1.91667 16.7843 1.91667 11.5C1.91667 6.21575 6.21575 1.91667 11.5 1.91667C14.0726 1.91667 16.4876 2.92196 18.3008 4.74758C18.6731 5.12373 19.2802 5.12565 19.6559 4.75238C20.0316 4.37958 20.0335 3.77296 19.6607 3.39729C17.4853 1.20654 14.5868 0 11.5 0C5.15871 0 0 5.15871 0 11.5C0 17.8413 5.15871 23 11.5 23C17.8413 23 23 17.8413 23 11.5C23 10.971 22.5707 10.5417 22.0417 10.5417Z" fill="#517EA1"/>
</svg>
